<svg xmlns="http://www.w3.org/2000/svg" width="15px" height="15px" viewBox="0 0 20 20">
    <g fill="none" fill-rule="evenodd">
        <g fill="#FFF">
            <path d="M0 0H1V1H0zM19 19H20V20H19z" opacity=".01"/>
        </g>
        <path fill="#FFF" fill-rule="nonzero" d="M3.254 4H5.9c.235 0 .462.086.642.243L7.411 5c.036.031.082.048.128.048h8.153c.554 0 1.003.47 1.003 1.049v1.887c0 .116.09.21.2.21h.803c.438 0 .793.37.793.828 0 .064-.008.129-.022.191l-1.59 6.981c-.108.473-.512.806-.976.806H3.253c-.553 0-1.002-.47-1.002-1.048V5.048C2.25 4.47 2.7 4 3.254 4zm.2 1.048c-.11 0-.2.094-.2.21v8.124c0 .038.024.07.059.08.043.013.087-.014.098-.058l1.147-4.436c.118-.457.515-.774.968-.774h9.966c.11 0 .2-.094.2-.21V6.306c0-.115-.09-.21-.2-.21H7.467c-.235 0-.462-.085-.642-.242l-.87-.757c-.035-.031-.08-.049-.128-.049H3.454z"/>
    </g>
</svg>
