<?xml version="1.0" encoding="UTF-8"?>
<svg width="43px" height="37px" viewBox="0 0 43 37" version="1.1" xmlns="http://www.w3.org/2000/svg" xmlns:xlink="http://www.w3.org/1999/xlink">
    <!-- Generator: sketchtool 49.1 (51147) - http://www.bohemiancoding.com/sketch -->
    <title>4C4013FC-052B-48AC-AF35-FAFE62B6E108</title>
    <desc>Created with sketchtool.</desc>
    <defs></defs>
    <g id="Mobile" stroke="none" stroke-width="1" fill="none" fill-rule="evenodd">
        <g id="3.0-Message-M" transform="translate(-139.000000, -853.000000)">
            <g id="Group-5-Copy" transform="translate(130.000000, 843.000000)">
                <g id="reply-all" transform="translate(20.000000, 6.000000)">
                    <path d="M16.6333333,9.36666667 C15.752,8.48533333 14.5793333,8 13.3333333,8 L7.61066667,8 L10.64,4.97066667 L9.696,4.02666667 L5.52933333,8.19333333 C5.26866667,8.454 5.26866667,8.87666667 5.52933333,9.13733333 L9.696,13.304 L10.64,12.36 L7.61066667,9.33266667 L13.3333333,9.33266667 C15.1706667,9.33266667 16.6666667,10.8286667 16.6666667,12.666 L16.6666667,15.9993333 L18,15.9993333 L18,12.666 C18,11.42 17.5146667,10.2473333 16.6333333,9.366 L16.6333333,9.36666667 Z" id="Shape" fill-opacity="0.38" fill="#000000" fill-rule="nonzero"></path>
                    <path d="M7.304,4.97066667 L6.36,4.02666667 L2.19333333,8.19333333 C1.93266667,8.454 1.93266667,8.87666667 2.19333333,9.13733333 L6.36,13.304 L7.304,12.36 L3.61,8.666 L7.304,4.97 L7.304,4.97066667 Z" id="Shape" fill-opacity="0.38" fill="#000000" fill-rule="nonzero"></path>
                    <polygon id="Shape" points="0 0 20 0 20 20 0 20"></polygon>
                </g>
                <text id="Reply-all" font-family="Lato-Regular, Lato" font-size="12" font-weight="normal" fill="#000000" fill-opacity="0.38">
                    <tspan x="8.3" y="44">Reply all</tspan>
                </text>
            </g>
        </g>
    </g>
</svg>