<svg xmlns="http://www.w3.org/2000/svg" xmlns:xlink="http://www.w3.org/1999/xlink" width="29" height="37" version="1.1" viewBox="0 0 29 37"><title>DE991393-56E4-41CB-A32E-50B93E35A87D</title><desc>Created with sketchtool.</desc><g id="Mobile" fill="none" fill-rule="evenodd" stroke="none" stroke-width="1"><g id="3.0-Message-M" transform="translate(-46.000000, -853.000000)"><g id="Group-5" transform="translate(30.000000, 843.000000)"><g id="reply" transform="translate(20.000000, 6.000000)"><path id="Shape" fill="#000" fill-opacity=".38" fill-rule="nonzero" d="M12,8 L5.61066667,8 L8.64,4.97066667 L7.696,4.02666667 L3.52933333,8.19333333 C3.26866667,8.454 3.26866667,8.87666667 3.52933333,9.13733333 L7.696,13.304 L8.64,12.36 L5.61066667,9.33266667 L12,9.33266667 C13.8373333,9.33266667 15.3333333,10.8286667 15.3333333,12.666 L15.3333333,15.9993333 L16.6666667,15.9993333 L16.6666667,12.666 C16.6666667,10.0933333 14.5726667,7.99933333 12,7.99933333 L12,8 Z"/><polygon id="Shape" points="0 0 20 0 20 20 0 20"/></g><text id="Reply" fill="#000" fill-opacity=".38" font-family="Lato-Regular, Lato" font-size="12" font-weight="normal"><tspan x="15.072" y="44">Reply</tspan></text></g></g></g></svg>