<?xml version="1.0" encoding="UTF-8"?>
<!-- Generator: Adobe Illustrator 21.0.2, SVG Export Plug-In . SVG Version: 6.00 Build 0)  -->
<svg version="1.1" xmlns="http://www.w3.org/2000/svg" xmlns:xlink="http://www.w3.org/1999/xlink" x="0px" y="0px" viewBox="0 0 800 600" style="enable-background:new 0 0 800 600;" xml:space="preserve">
<style type="text/css">
	.st0{fill:#E74C3C;}
	.st1{fill:#FFFFFF;}
	.st2{opacity:0.25;}
</style>
<g id="Layer_2">
</g>
<g id="Layer_1">
	<g>
		<g id="XMLID_1_">
			<g>
				<path class="st0" d="M614.9,173.3v2.3l-0.1,2.3l-0.3,2.2l-1.8,12.2l-1.3,7.4l-1.4,7.4l-1.5,7.4l-1.6,7.3l-1.7,7.3l-1.8,7.3      l-2,7.2l-2.1,7.2l-2.2,7.2l-2.3,7.1l-2.5,7.1l-2.5,7.1l-2.7,7l-2.7,7l-2.9,6.9l-3,6.9l-3.1,6.9l-3.2,6.8l-3.3,6.7l-3.4,6.7      l-3.5,6.6l-3.6,6.6l-3.7,6.5l-3.8,6.4l-3.9,6.4l-4,6.3l-4.1,6.3l-4.3,6.2l-4.3,6.1l-4.4,6l-4.5,6l-4.6,5.9l-4.7,5.8l-4.8,5.7      l-4.9,5.7l-5,5.6l-5.1,5.5l-5.2,5.4l-5.3,5.4l-5.3,5.2l-5.4,5.2l-5.5,5.1l-5.6,5l-5.7,4.9l-5.8,4.8l-5.8,4.7l-5.9,4.6l-6,4.5      l-6.1,4.4l-6.1,4.3l-6.2,4.3l-6.3,4.1l-6.3,4l-10.3-6.7l-6.2-4.2l-6.2-4.3l-6.1-4.4l-6-4.5l-5.9-4.6l-5.9-4.7l-5.8-4.8l-5.7-4.9      l-5.6-4.9l-5.6-5.1l-5.4-5.1l-5.4-5.2l-5.3-5.3l-5.2-5.4l-5.1-5.5l-5-5.5l-4.9-5.7l-4.9-5.7l-4.7-5.8l-4.7-5.9l-4.6-6l-4.5-6      l-4.3-6.1l-4.3-6.2l-4.2-6.2l-4.1-6.3l-4-6.4l-3.9-6.4l-3.8-6.5l-3.6-6.6l-3.6-6.6l-3.4-6.7l-3.3-6.7l-3.3-6.8l-3.1-6.8l-3-6.9      l-2.9-6.9l-2.8-7l-2.7-7l-2.6-7l-2.5-7.1l-2.3-7.1l-2.2-7.2l-2.2-7.2l-2-7.2l-1.9-7.3l-1.8-7.3l-1.7-7.3l-1.5-7.4l-1.5-7.4      l-1.3-7.4l-1.2-7.4l-1-7.4l-0.3-4.3l-0.1-2.2l0.1-2.3l0.2-2.2l0.3-2.2l0.5-2.2l0.5-2.3l0.6-2.1l0-0.1l0.8-2.1l0.8-2.1l1-2.1l1-2      l1.2-1.9l1.2-1.8l1.4-1.9l1.5-1.7l1.5-1.6l1.6-1.6l1.7-1.5l1.8-1.4l1.8-1.3l1.9-1.3l2-1.1l12-6.2l6.2-3l6.2-2.9l6.3-2.8l6.3-2.8      l6.4-2.5l6.4-2.5l6.5-2.4l6.5-2.2l6.6-2.1l6.5-2l6.6-1.9l6.6-1.8l6.7-1.7l6.7-1.6l6.7-1.4l6.8-1.3l6.8-1.3l6.8-1.1l6.8-1      l6.8-0.9l6.9-0.7l6.9-0.6l6.9-0.6l6.9-0.4l6.9-0.3l6.9-0.2l6.9,0l13.6,0.3l6.9,0.3l6.9,0.4l6.9,0.5l6.8,0.7l6.9,0.7l6.8,0.9      l6.8,1l6.8,1.1l6.8,1.2l6.8,1.4l6.8,1.4l6.7,1.6l6.7,1.7l6.6,1.8l6.6,1.9l6.6,2.1l6.5,2.1l6.5,2.2l6.5,2.4l6.5,2.4l6.4,2.6      l6.4,2.7l6.2,2.8l6.3,2.9l6.2,3l6.2,3.1l6.1,3.2l3.7,2.2l1.8,1.3l1.8,1.4l1.7,1.5l1.6,1.6l1.5,1.6l1.5,1.8l1.4,1.8l1.3,1.9      l1.2,1.9l1.1,2l1,2.1l0.9,2.1l0.8,2.2l0.1,0.3v0l0.5,1.8l0.6,2.2l0.4,2.2l0.3,2.2l0.2,2.3L614.9,173.3z M575.2,174.1l0-0.7      l-0.1-0.6l-0.3-0.7l-0.3-0.6l-0.4-0.6l-0.5-0.5l-0.6-0.4l-0.6-0.4l-0.7-0.2l-0.7-0.2h-0.7l-0.7,0.1l-0.7,0.1l-0.6,0.3l-1.1,0.7      l-112.9,94.8l15.5,13l55.8,46.9l3.4-6.3l3.3-6.4l3.2-6.3l3.1-6.5l3-6.5l2.8-6.6l2.8-6.6l2.6-6.6l2.6-6.7l2.4-6.7l2.4-6.8      l2.2-6.8l2.1-6.8l1.9-6.9l1.9-6.9l1.7-7l1.6-6.9l1.5-7l1.4-7l1.1-6l0.2-1l1.2-7.1l1.3-8.8L575.2,174.1z M400,258.6L529.4,150      l-6.2-2.3l-6.2-2.2l-6.2-2.1l-6.2-1.9l-6.3-1.8l-6.3-1.7l-6.4-1.7l-6.4-1.5l-6.4-1.4l-6.4-1.2l-6.5-1.2l-6.5-1l-6.5-0.9      l-6.5-0.8l-6.5-0.6l-6.5-0.6l-6.6-0.4l-6.6-0.3l-6.6-0.2l-7.6-0.1l-6.6,0l-6.5,0.2l-6.6,0.3l-6.5,0.4l-6.6,0.6l-6.5,0.6      l-6.5,0.7l-6.5,0.9l-6.5,1l-6.5,1.1l-6.5,1.2l-6.4,1.4l-6.4,1.5l-6.4,1.6l-6.3,1.7l-6.3,1.8l-6.3,1.9l-6.2,2.1l-6.2,2.1      l-7.1,2.6L400,258.6z M496.2,370.7l8.1-11.5l-65.6-55.1l-15.5-13l-10.4,8.8l-1.6,1.2l-1.3,0.8l-1.3,0.7l-1.3,0.6l-1.5,0.5      l-1.4,0.4l-1.5,0.2l-1.5,0.2l-1.5,0.1l-2-0.1l-1.5-0.3l-1.4-0.3l-1.5-0.4l-1.4-0.5l-1.3-0.6l-1.3-0.8l-1.2-0.8l-1.2-0.9      l-10.4-8.8l-15.5,13l-65.6,55.1l4.1,5.9l4.2,5.8l4.3,5.7l4.4,5.7l4.5,5.6l4.5,5.5l4.7,5.4l4.7,5.4l4.8,5.3l4.9,5.2l5,5.1l5.1,5      l5.2,5l5.3,4.8l5.3,4.8l5.4,4.7l5.5,4.6l5.6,4.5l5.6,4.4l11.3,8.4h0l5.8-4.2l5.7-4.3l5.6-4.4l5.6-4.5l5.5-4.6l5.4-4.7l5.3-4.8      l5.2-4.9l5.2-4.9l5.1-5l5-5.1l4.9-5.2l4.8-5.3l4.7-5.3l4.7-5.5l4.5-5.4l4.5-5.6l4.4-5.6L496.2,370.7z M330.4,278.1l15.5-13      L233,170.3l-0.6-0.4l-0.6-0.4l-0.7-0.2l-0.7-0.2h-0.7l-0.7,0.1l-0.7,0.1l-0.6,0.3l-0.6,0.3l-0.6,0.4l-0.5,0.5l-0.4,0.6l-0.4,0.6      l-0.2,0.7l-0.1,0.7v1.3l1,7.1l1.1,7.1l0.5,2.8l0.8,4.3l1.4,7l1.4,7l1.6,7l1.7,7l1.8,6.9l1.9,6.9l2.1,6.8l2.1,6.8l2.3,6.8      l2.4,6.8l2.5,6.7l2.6,6.7l2.7,6.6l2.9,6.5l2.9,6.5l3.1,6.5l3.1,6.4l3.3,6.4l4.3,7.9L330.4,278.1z"/>
				<polygon class="st1" points="575.1,173.4 575.2,174.1 575.1,174.8 573.8,183.7 572.7,190.7 572.5,191.7 571.4,197.7 570,204.8       568.5,211.8 566.9,218.7 565.1,225.7 563.2,232.6 561.3,239.4 559.2,246.3 557,253.1 554.6,259.9 552.3,266.6 549.7,273.2       547,279.9 544.3,286.5 541.4,293 538.4,299.5 535.3,306 532.1,312.3 528.8,318.7 525.4,325 469.6,278.1 454.1,265.1 567,170.3       568.1,169.6 568.8,169.4 569.4,169.2 570.2,169.2 570.9,169.2 571.5,169.3 572.2,169.6 572.8,169.9 573.4,170.3 573.9,170.8       574.4,171.4 574.7,172 575,172.7     "/>
				<polygon class="st1" points="529.4,150 400,258.6 270.6,150 277.7,147.3 284,145.2 290.2,143.1 296.5,141.2 302.8,139.4       309.1,137.7 315.5,136.1 321.9,134.7 328.3,133.3 334.7,132.1 341.2,130.9 347.7,129.9 354.2,129 360.7,128.3 367.2,127.6       373.8,127.1 380.3,126.7 386.9,126.4 393.4,126.2 400,126.1 407.6,126.2 414.1,126.4 420.7,126.7 427.3,127.2 433.8,127.7       440.3,128.4 446.8,129.2 453.3,130.1 459.8,131.1 466.3,132.3 472.7,133.5 479.1,134.9 485.5,136.3 491.9,138 498.2,139.7       504.5,141.5 510.8,143.4 517,145.5 523.2,147.7     "/>
				<polygon class="st1" points="504.3,359.2 496.2,370.7 491.9,376.4 487.5,382.1 483.1,387.7 478.5,393.1 473.9,398.6 469.1,404       464.3,409.2 459.4,414.4 454.4,419.5 449.3,424.6 444.1,429.5 438.9,434.4 433.6,439.1 428.2,443.8 422.7,448.4 417.1,452.9       411.5,457.2 405.8,461.6 400,465.7 400,465.7 388.7,457.4 383.1,453 377.5,448.5 372,444 366.6,439.3 361.3,434.5 356,429.7       350.9,424.7 345.8,419.7 340.8,414.6 335.8,409.4 331,404.1 326.3,398.8 321.6,393.4 317.1,387.8 312.6,382.3 308.3,376.6       304,370.9 299.8,365.1 295.7,359.2 361.3,304.1 376.8,291.1 387.2,299.9 388.4,300.7 389.6,301.6 390.9,302.4 392.3,302.9       393.7,303.5 395.1,303.9 396.5,304.2 398,304.4 400,304.5 401.5,304.4 403,304.3 404.4,304 405.8,303.6 407.3,303.1       408.6,302.5 409.9,301.8 411.2,301 412.8,299.9 423.2,291.1 438.7,304.1     "/>
				<polygon class="st1" points="345.9,265.1 330.4,278.1 274.6,325 270.3,317.1 267,310.7 263.9,304.3 260.8,297.9 257.9,291.3       255,284.8 252.3,278.2 249.6,271.5 247.2,264.9 244.8,258.1 242.4,251.3 240.3,244.5 238.2,237.7 236.3,230.8 234.4,223.9       232.7,216.9 231.1,210 229.7,203 228.3,196 227.5,191.7 227,188.9 225.9,181.9 224.9,174.8 224.9,173.5 225,172.8 225.2,172.1       225.6,171.5 226,170.9 226.5,170.4 227.1,170 227.7,169.6 228.3,169.4 229,169.2 229.7,169.2 230.5,169.2 231.1,169.3       231.8,169.6 232.4,169.9 233,170.3     "/>
			</g>
			<g>
			</g>
		</g>
		<polygon class="st2" points="607.1,160.6 605.9,159.6 604.6,158.7 603.3,157.9 601.9,157.2 600.4,156.6 598.9,156.1 597.4,155.8     595.9,155.5 594.4,155.4 592.8,155.3 591.2,155.4 589.7,155.5 588.2,155.8 586.6,156.2 585.1,156.7 583.7,157.3 582.3,158     581,158.8 578.8,160.4 567,170.3 454.1,265.1 423.2,291.1 412.8,299.9 411.2,301 409.9,301.8 408.6,302.5 407.3,303.1     405.8,303.6 404.4,304 403,304.3 401.5,304.4 400,304.5 398,304.4 396.5,304.2 395.1,303.9 393.7,303.5 392.3,302.9 390.9,302.3     389.6,301.6 388.4,300.7 387.2,299.9 376.8,291.1 345.9,265.1 233,170.3 221.2,160.4 220,159.5 218.7,158.6 217.3,157.8     215.9,157.1 214.4,156.5 213,156.1 211.5,155.7 209.9,155.4 208.4,155.4 206.8,155.3 205.2,155.4 203.7,155.5 202.2,155.9     200.6,156.3 199.2,156.8 197.7,157.4 196.3,158.1 195,159 193.8,159.9 191.7,161.7 227.5,191.7 227.5,191.7 330.4,278.1     361.3,304.1 374.4,315.1 376.1,316.4 377.8,317.6 379.5,318.7 381.3,319.8 383.2,320.7 385.1,321.5 387.1,322.2 389,322.9     391.1,323.4 393.1,323.8 395.2,324.1 397.2,324.3 400,324.4 402.1,324.3 404.1,324.2 406.2,323.9 408.3,323.5 410.3,323     412.3,322.5 414.2,321.7 416.2,321 418.1,320.1 419.9,319.1 421.7,318 423.4,316.8 425.6,315.1 438.7,304.1 469.6,278.1     572.5,191.7 572.5,191.7 608.3,161.7   "/>
	</g>
</g>
</svg>