<svg xmlns="http://www.w3.org/2000/svg" width="15px" height="15px" viewBox="0 0 20 20">
    <g fill="none" fill-rule="evenodd">
        <path fill="#FFF" d="M0 0H1V1H0zM19 19H20V20H19z" opacity=".01"/>
        <path fill="#FFF" fill-rule="nonzero" d="M8.505 15c.013.341.054.675.12 1H1V4.3 3H8.233L9.47 4.3H17v4.617c-.321-.124-.656-.222-1-.292V8H2v7h6.505zM3.909 7.066H16V5.377H9.45c-.17 0-.33-.073-.45-.202L7.914 4H2v3.066h1.91z"/>
        <g fill="#FFF" fill-rule="nonzero">
            <path d="M5.5 10.5c-2.761 0-5-2.239-5-5s2.239-5 5-5 5 2.239 5 5-2.239 5-5 5zm0-1c2.21 0 4-1.79 4-4s-1.79-4-4-4-4 1.79-4 4 1.79 4 4 4z" transform="translate(9 9)"/>
            <path d="M7.677 5.33c.276 0 .5.225.5.5 0 .277-.224.5-.5.5H5.09V3.013c0-.276.223-.5.5-.5.276 0 .5.224.5.5V5.33h1.586z" transform="translate(9 9)"/>
        </g>
    </g>
</svg>
