<?xml version="1.0" encoding="UTF-8"?>
<!-- Generator: Adobe Illustrator 21.0.2, SVG Export Plug-In . SVG Version: 6.00 Build 0)  -->
<svg version="1.1" xmlns="http://www.w3.org/2000/svg" xmlns:xlink="http://www.w3.org/1999/xlink" x="0px" y="0px" viewBox="0 0 800 600" style="enable-background:new 0 0 800 600;" xml:space="preserve">
<style type="text/css">
	.st0{fill:#E74C3C;}
	.st1{opacity:0.25;}
</style>
<g id="Layer_2">
</g>
<g id="Layer_1">
	<g>
		<path class="st0" d="M614.8,171.1l-0.2-2.3l-0.4-2.2l-0.4-2.2l-0.6-2.2l-0.5-1.8v0l-0.1-0.4l-0.8-2.1l-0.8-2.1l-1-2l-1.1-2    l-1.2-1.9l-1.3-1.9l-1.4-1.8l-1.5-1.7l-1.5-1.6l-1.7-1.6l-1.7-1.5l-1.8-1.4l-1.8-1.3l-3.7-2.2l-6.1-3.2l-6.2-3.1l-6.2-3l-6.3-3    l-6.3-2.8l-6.4-2.7l-6.4-2.6l-6.5-2.4l-6.5-2.4l-6.5-2.2l-6.5-2.1l-6.6-2l-6.6-1.9l-6.6-1.8l-6.7-1.7l-6.7-1.6l-6.8-1.4l-6.8-1.4    l-6.8-1.2l-6.8-1.1l-6.8-1l-6.8-0.9l-6.9-0.8l-6.8-0.6l-6.9-0.5l-6.9-0.4l-6.9-0.3L400,86.3l-6.9,0.1l-6.9,0.2l-6.9,0.3l-6.9,0.4    l-6.9,0.5l-6.8,0.6l-6.9,0.7l-6.8,0.9l-6.8,1l-6.8,1.1l-6.8,1.2l-6.8,1.4l-6.7,1.4l-6.7,1.6l-6.7,1.7l-6.7,1.8l-6.6,1.9l-6.5,2    l-6.6,2.1l-6.5,2.2l-6.5,2.4l-6.4,2.5l-6.4,2.5l-6.3,2.7l-6.3,2.8l-6.2,2.9l-6.2,3l-12,6.2l-2,1.1l-1.9,1.2l-1.8,1.3l-1.8,1.4    l-1.7,1.5l-1.7,1.6l-1.5,1.7l-1.5,1.7l-1.4,1.8l-1.2,1.8l-1.2,1.9l-1,2l-1,2.1l-0.8,2.1l-0.8,2.1l0,0.1l-0.6,2.1l-0.5,2.2    l-0.5,2.2l-0.3,2.2l-0.2,2.2l-0.1,2.3l0.1,2.2l0.4,4.3l1,7.4l1.2,7.4l1.3,7.4l1.4,7.4l1.5,7.4l1.7,7.3l1.7,7.3l1.9,7.3l2,7.2    l2.1,7.2l2.2,7.2l2.3,7.1l2.4,7.1l2.6,7l2.7,7l2.8,7l2.9,6.9l3,6.9l3.1,6.8l3.3,6.8l3.3,6.7l3.4,6.7l3.6,6.6l3.6,6.6l3.8,6.5    l3.9,6.4l4,6.4l4.1,6.3l4.2,6.2l4.3,6.2l4.3,6.1l4.5,6l4.6,6l4.7,5.9l4.7,5.8l4.9,5.7l4.9,5.7l5,5.5l5.1,5.5l5.2,5.4l5.3,5.3    l5.4,5.2l5.4,5.1l5.6,5.1l5.6,4.9l5.7,4.9l5.8,4.8l5.9,4.7l5.9,4.6l6,4.5l6.1,4.4l6.2,4.3l6.2,4.2l10.3,6.7l6.3-4l6.3-4.1l6.2-4.3    l6.1-4.3l6.1-4.4l6-4.5l5.9-4.6l5.8-4.7l5.8-4.8l5.7-4.9l5.6-5l5.5-5.1l5.4-5.2l5.3-5.2l5.3-5.4l5.2-5.4l5.1-5.5l5-5.6l4.9-5.7    l4.8-5.7l4.7-5.8l4.6-5.9l4.5-6l4.4-6l4.3-6.1l4.3-6.2l4.1-6.3l4-6.3l3.9-6.4l3.8-6.4l3.7-6.5l3.6-6.6l3.5-6.6l3.4-6.7l3.3-6.7    l3.2-6.8l3.1-6.9l3-6.9l2.9-6.9l2.7-7l2.7-7l2.5-7.1l2.4-7.1l2.3-7.1l2.2-7.2l2.1-7.2l2-7.2l1.8-7.3l1.7-7.3l1.6-7.3l1.5-7.4    l1.4-7.4l1.3-7.4l1.8-12.2l0.2-2.2l0.2-2.3v-2.3L614.8,171.1z M277.7,147.3l6.2-2.1l6.2-2l6.3-1.9l6.3-1.8l6.3-1.7l6.4-1.5    l6.4-1.5l6.4-1.4l6.5-1.2l6.5-1.1l6.5-1l6.5-0.9l6.5-0.7l6.5-0.6l6.6-0.5l6.5-0.4l6.6-0.3l6.5-0.2l6.6-0.1l7.6,0.1l6.6,0.2    l6.5,0.3l6.6,0.5l6.5,0.5l6.5,0.6l6.5,0.8l6.5,0.9l6.5,1l6.5,1.2l6.4,1.2l6.4,1.4l6.4,1.5l6.4,1.7l6.3,1.7l6.3,1.8l6.3,1.9l6.2,2    l6.2,2.2l6.2,2.3L400,258.6L270.6,150L277.7,147.3z M274.6,325l-4.3-7.9l-3.3-6.4l-3.1-6.4l-3.1-6.5l-2.9-6.5l-2.9-6.5l-2.7-6.6    l-2.6-6.7l-2.5-6.7l-2.4-6.8l-2.3-6.8l-2.1-6.8l-2.1-6.8l-1.9-6.9l-1.8-6.9l-1.7-7l-1.6-7l-1.4-7l-1.4-7l-0.8-4.3l-0.5-2.8    l-1.1-7.1l-1-7.1v-1.3l0.2-0.7l0.2-0.7l0.4-0.6l0.4-0.6l0.5-0.5l0.6-0.4l0.6-0.4l0.6-0.2l0.7-0.2l0.7-0.1h0.7l0.7,0.2l0.6,0.2    l0.6,0.4l0.6,0.4l112.9,94.8l-15.5,13L274.6,325z M496.2,370.7l-4.3,5.7l-4.4,5.6l-4.5,5.6l-4.5,5.5l-4.7,5.5l-4.7,5.3l-4.8,5.3    l-4.9,5.2l-5,5.1l-5.1,5l-5.2,4.9l-5.2,4.9l-5.3,4.8l-5.4,4.7l-5.5,4.6l-5.6,4.5l-5.6,4.4l-5.7,4.3l-5.8,4.2h0l-11.3-8.4l-5.6-4.4    l-5.6-4.5L372,444l-5.4-4.7l-5.3-4.8l-5.3-4.8l-5.2-5l-5.1-5l-5-5.1l-4.9-5.2l-4.8-5.3l-4.7-5.4l-4.7-5.4l-4.5-5.5l-4.5-5.6    l-4.4-5.7l-4.3-5.7l-4.2-5.8l-4.1-5.9l65.6-55.1l15.5-13l10.4,8.8l1.2,0.9l1.2,0.8l1.3,0.8l1.4,0.6l1.4,0.5l1.4,0.4l1.4,0.3    l1.5,0.2l2,0.1l1.5-0.1l1.5-0.2l1.5-0.2l1.4-0.4l1.4-0.5l1.3-0.6l1.3-0.7l1.3-0.8l1.6-1.2l10.4-8.8l15.5,13l65.6,55.1L496.2,370.7    z M571.4,197.7l-1.4,7l-1.5,7l-1.6,6.9l-1.7,7l-1.9,6.9l-1.9,6.9l-2.1,6.8l-2.2,6.8l-2.3,6.8l-2.4,6.7l-2.6,6.7l-2.6,6.6l-2.8,6.6    l-2.8,6.6l-3,6.5l-3.1,6.5l-3.2,6.4l-3.3,6.4l-3.4,6.3l-55.8-46.9l-15.5-13L567,170.3l1.1-0.7l0.6-0.2l0.7-0.2l0.7-0.1h0.7    l0.7,0.2l0.7,0.2l0.6,0.4l0.6,0.4l0.5,0.5l0.5,0.6l0.3,0.6l0.3,0.7l0.1,0.6l0.1,0.8l-0.1,0.7l-1.3,8.9l-1.1,7.1l-0.2,1    L571.4,197.7z"/>
		<polygon class="st1" points="607.1,160.6 605.9,159.6 604.6,158.7 603.3,157.9 601.9,157.2 600.4,156.6 598.9,156.1 597.4,155.8     595.9,155.5 594.4,155.4 592.8,155.3 591.2,155.4 589.7,155.5 588.2,155.8 586.6,156.2 585.1,156.7 583.7,157.3 582.3,158     581,158.8 578.8,160.4 567,170.3 454.1,265.1 423.2,291.1 412.8,299.9 411.2,301 409.9,301.8 408.6,302.5 407.3,303.1     405.8,303.6 404.4,304 403,304.3 401.5,304.4 400,304.5 398,304.4 396.5,304.2 395.1,303.9 393.7,303.5 392.3,302.9 390.9,302.3     389.6,301.6 388.4,300.7 387.2,299.9 376.8,291.1 345.9,265.1 233,170.3 221.2,160.4 220,159.5 218.7,158.6 217.3,157.8     215.9,157.1 214.4,156.5 213,156.1 211.5,155.7 209.9,155.4 208.4,155.4 206.8,155.3 205.2,155.4 203.7,155.5 202.2,155.9     200.6,156.3 199.2,156.8 197.7,157.4 196.3,158.1 195,159 193.8,159.9 191.7,161.7 227.5,191.7 227.5,191.7 330.4,278.1     361.3,304.1 374.4,315.1 376.1,316.4 377.8,317.6 379.5,318.7 381.3,319.8 383.2,320.7 385.1,321.5 387.1,322.2 389,322.9     391.1,323.4 393.1,323.8 395.2,324.1 397.2,324.3 400,324.4 402.1,324.3 404.1,324.2 406.2,323.9 408.3,323.5 410.3,323     412.3,322.5 414.2,321.7 416.2,321 418.1,320.1 419.9,319.1 421.7,318 423.4,316.8 425.6,315.1 438.7,304.1 469.6,278.1     572.5,191.7 572.5,191.7 608.3,161.7   "/>
	</g>
</g>
</svg>