<svg xmlns="http://www.w3.org/2000/svg" width="16" height="16" viewBox="0 0 16 16">
    <g fill="none" fill-rule="evenodd">
        <path fill="#000" fill-opacity=".38" fill-rule="nonzero" d="M15.37 4.885a7.944 7.944 0 0 0-1.714-2.542A7.984 7.984 0 0 0 7.999 0a7.969 7.969 0 0 0-5.656 2.344A7.984 7.984 0 0 0-.001 8a7.969 7.969 0 0 0 2.344 5.657A7.984 7.984 0 0 0 7.999 16a7.969 7.969 0 0 0 5.657-2.344A7.984 7.984 0 0 0 16 8c0-1.08-.213-2.127-.63-3.115zM8 14.667A6.676 6.676 0 0 1 1.333 8 6.676 6.676 0 0 1 8 1.333 6.676 6.676 0 0 1 14.667 8 6.676 6.676 0 0 1 8 14.667z"/>
        <path fill="#000" fill-opacity=".38" fill-rule="nonzero" d="M11 5.196L8.173 8.023a.662.662 0 0 0-.448.038L5.589 6.536l-.387.542 2.135 1.525c-.002.021-.002.042-.002.065 0 .367.3.667.667.667a.669.669 0 0 0 .644-.84l2.825-2.827-.47-.47L11 5.195z"/>
        <path fill="#000" fill-opacity=".38" fill-rule="nonzero" d="M8 2a5.96 5.96 0 0 0-4.242 1.758A5.967 5.967 0 0 0 2 8c0 1.603.625 3.11 1.758 4.242A5.956 5.956 0 0 0 8 14c1.603 0 3.11-.625 4.242-1.758A5.956 5.956 0 0 0 14 8c0-1.603-.625-3.11-1.758-4.242A5.956 5.956 0 0 0 8 2zm0 11.333A5.338 5.338 0 0 1 2.667 8 5.339 5.339 0 0 1 8 2.667 5.338 5.338 0 0 1 13.333 8 5.339 5.339 0 0 1 8 13.333z"/>
        <path d="M-2-2h20v20H-2z"/>
    </g>
</svg>
