<svg xmlns="http://www.w3.org/2000/svg" width="16" height="16" viewBox="0 0 16 16">
    <g fill="none" fill-rule="evenodd">
        <path fill="#FFF" fill-opacity=".7" fill-rule="nonzero" d="M4.667 1.333V0h-4A.666.666 0 0 0 0 .667v4h1.333v-2.39L5.03 5.973l.944-.944-3.696-3.696h2.39zM5.03 10.03l-3.697 3.693v-2.389H0v4c0 .369.298.667.667.667h4v-1.334h-2.39l3.696-3.696-.944-.942zM14.667 13.723l-3.696-3.694-.944.944 3.696 3.694h-2.39V16h4a.666.666 0 0 0 .667-.667v-4h-1.333v2.39zM15.333 0h-4v1.333h2.39L10.029 5.03l.944.944 3.694-3.696v2.39H16v-4A.666.666 0 0 0 15.333 0z"/>
    </g>
</svg>
