<svg xmlns="http://www.w3.org/2000/svg" width="14" height="14" viewBox="0 0 14 14">
    <g fill="none" fill-rule="evenodd">
        <path fill="#000" fill-opacity=".38" fill-rule="nonzero" d="M7 9.167c0 .577-.225 1.12-.633 1.531L5.365 11.7a2.169 2.169 0 0 1-3.063 0 2.169 2.169 0 0 1 0-3.063l1.002-1.002a2.152 2.152 0 0 1 1.531-.633H5V5.669h-.165c-.935 0-1.812.364-2.474 1.024L1.359 7.695a3.502 3.502 0 0 0 0 4.948 3.488 3.488 0 0 0 2.474 1.023c.896 0 1.792-.342 2.475-1.023l1.002-1.002a3.494 3.494 0 0 0 1.023-2.474V9H6.999v.167H7zM12.642 1.358a3.502 3.502 0 0 0-4.948 0L6.692 2.36a3.475 3.475 0 0 0-1.025 2.473v.166h1.334v-.166c0-.578.224-1.121.633-1.532L8.636 2.3a2.169 2.169 0 0 1 3.063 0 2.169 2.169 0 0 1 0 3.063l-1.002 1.002a2.152 2.152 0 0 1-1.532.633h-.164v1.334h.164c.936 0 1.813-.365 2.476-1.025l1.002-1.002a3.5 3.5 0 0 0 0-4.946h-.001z"/>
        <path fill="#000" fill-opacity=".38" fill-rule="nonzero" d="M4.361 8.695l4.334-4.334.943.943-4.334 4.334-.943-.943z"/>
        <path d="M-3-3h20v20H-3z"/>
    </g>
</svg>
