<svg xmlns="http://www.w3.org/2000/svg" width="12" height="14" viewBox="0 0 12 14">
    <g fill="none" fill-rule="evenodd">
        <path fill="#000" fill-opacity=".38" fill-rule="nonzero" d="M10 5.667V4.333a3.983 3.983 0 0 0-1.17-2.829A3.967 3.967 0 0 0 6 .334a3.983 3.983 0 0 0-2.83 1.17A3.967 3.967 0 0 0 2 4.334v1.333C1.265 5.667.667 6.265.667 7v5.333c0 .736.598 1.334 1.333 1.334h8c.735 0 1.333-.598 1.333-1.334V7c0-.735-.598-1.333-1.333-1.333zM3.333 4.333A2.67 2.67 0 0 1 6 1.667a2.67 2.67 0 0 1 2.667 2.666v1.334H3.333V4.333zm6.667 8H2V7h8v5.333c.002 0 0 0 0 0z"/>
        <path fill="#000" fill-opacity=".38" fill-rule="nonzero" d="M4 9c-.367 0-.667.3-.667.667 0 .366.3.666.667.666.367 0 .667-.3.667-.666C4.667 9.3 4.367 9 4 9zM6 9c-.367 0-.667.3-.667.667 0 .366.3.666.667.666.367 0 .667-.3.667-.666C6.667 9.3 6.367 9 6 9zM8 9c-.367 0-.667.3-.667.667 0 .366.3.666.667.666.367 0 .667-.3.667-.666C8.667 9.3 8.367 9 8 9z"/>
        <path d="M-4-3h20v20H-4z"/>
    </g>
</svg>
