<svg xmlns="http://www.w3.org/2000/svg" width="46" height="39" viewBox="0 0 46 39">
    <path fill="#000" fill-rule="evenodd" d="M44.076 12.974h-2.677v-4.8c0-1.156-.94-2.09-2.092-2.09h-18.98L16.494.724H2.097A2.096 2.096 0 0 0 0 2.815v33.446c0 .43.135.852.404 1.204.374.489.943.77 1.562.77h34.316c.887 0 1.666-.595 1.879-1.387L46 15.384v-.138c0-1.316-.809-2.272-1.924-2.272zM1.536 2.816c0-.31.25-.56.56-.56h13.608l3.834 5.357h19.765c.31 0 .562.25.562.56v4.8H9.76c-.11 0-.218.008-.326.026-.746.128-1.367.67-1.55 1.361L1.535 31.652V2.816zM36.7 36.386a.442.442 0 0 1-.42.321H1.967a.419.419 0 0 1-.342-.172c-.048-.064-.123-.194-.096-.31L9.34 14.823a.44.44 0 0 1 .42-.321h34.316c.292 0 .367.419.386.628l-7.76 21.255z"/>
</svg>
