<svg xmlns="http://www.w3.org/2000/svg" width="56" height="64" viewBox="0 0 56 64">
    <defs>
        <linearGradient id="a" x1="100%" x2="0%" y1="0%" y2="100%">
            <stop offset="0%" stop-color="#34495E"/>
            <stop offset="100%" stop-color="#2C3E50"/>
        </linearGradient>
    </defs>
    <path fill="url(#a)" fill-rule="nonzero" d="M28 0C16.972 0 8 8.972 8 20v6H5c-2.756 0-5 2.244-5 5v28c0 2.756 2.244 5 5 5h46c2.756 0 5-2.244 5-5V31c0-2.756-2.244-5-5-5h-3v-6C48 8.972 39.028 0 28 0zM10 20c0-9.924 8.076-18 18-18s18 8.076 18 18v6h-6v-6c0-6.618-5.382-12-12-12s-12 5.382-12 12v6h-6v-6zm28 6H18v-6c0-5.514 4.486-10 10-10s10 4.486 10 10v6zM24.586 42l-10 10H5.414l10-10h9.172zm12 0l-10 10h-9.172l10-10h9.172zm12 0l-10 10h-9.172l10-10h9.172zM54 42v10H41.414l10-10H54zM2.586 52H2V42h10.586l-10 10zM51 62H5c-1.654 0-3-1.346-3-3v-5h52v5c0 1.654-1.346 3-3 3zm3-31v9H2v-9c0-1.654 1.346-3 3-3h46c1.654 0 3 1.346 3 3z"/>
</svg>
