<svg xmlns="http://www.w3.org/2000/svg" width="51" height="65" viewBox="0 0 51 65">
    <path fill="#2F4356" fill-rule="nonzero" d="M49.172 7.265c.547 0 .99.443.99.989-.001 8.154-.005 13.235-.014 13.338a1.833 1.833 0 0 1-.065.227l-3.467 8.587v24.498a.989.989 0 1 1-1.977 0v-15.48l.05-8.209-39.167-.05-.05 30.957 11.272.05v-8.281c0-4.597 3.74-8.337 8.337-8.337 4.596 0 8.336 3.74 8.336 8.337l-.05 8.231 11.272.05v-3.448a.989.989 0 1 1 1.977 0v3.761c0 .89-.724 1.615-1.614 1.615H5.159c-.89 0-1.614-.724-1.614-1.615l.003-32.06C1.228 24.669.061 21.769.03 21.67A1.81 1.81 0 0 1 0 21.434V1.614C0 .724.724 0 1.615 0h7c.89 0 1.614.724 1.615 1.615l-.05 2.36 9.816.05v-2.41C19.996.725 20.72 0 21.61 0h6.941c.89 0 1.615.724 1.615 1.615l-.05 2.36 9.816.05v-2.41c0-.89.724-1.615 1.614-1.615h7c.89 0 1.615.724 1.615 1.615v2.823a.989.989 0 1 1-1.978 0l.05-2.46-6.324-.05v2.41c0 .89-.724 1.614-1.615 1.614H29.803c-.89 0-1.615-.724-1.615-1.614l.05-2.36-6.265-.05v2.41c0 .89-.724 1.614-1.615 1.614H9.866c-.89 0-1.614-.724-1.614-1.614l.05-2.36-6.325-.05V12.15l-.05 8.296 46.257.05V8.254c0-.546.442-.989.989-.989zm-30.45 46.626l-.05 8.232 12.767.05V53.89a6.366 6.366 0 0 0-6.358-6.359 6.366 6.366 0 0 0-6.36 6.359zm29.06-31.468l-45.356-.069 2.742 6.884H44.96l2.822-6.815z"/>
</svg>
