<svg xmlns="http://www.w3.org/2000/svg" width="16" height="16" viewBox="0 0 16 16">
    <g fill="none" fill-rule="evenodd">
        <path fill="#FFF" fill-opacity=".7" fill-rule="nonzero" d="M15.771.864A.666.666 0 0 0 15.06.76L.39 7.427a.667.667 0 0 0 .092 1.25L4.667 9.87v4.831a.666.666 0 0 0 1.22.37l2.343-3.509 3.473 1.737a.67.67 0 0 0 .937-.408L15.973 1.56a.673.673 0 0 0-.202-.694V.864zM2.592 7.89l9.386-4.267-6.402 5.123a.671.671 0 0 0-.058-.02L2.593 7.89zM6 12.5V9.368a.562.562 0 0 0-.008-.1l6.982-5.585-5.486 6.592-.042.056L6 12.5zm5.586-.75l-3.148-1.575 5.583-6.711-2.435 8.286z"/>
        <path d="M-2-2h20v20H-2z"/>
    </g>
</svg>
