<svg xmlns="http://www.w3.org/2000/svg" width="16" height="16" viewBox="0 0 16 16">
    <g fill="none" fill-rule="evenodd">
        <path fill="#FFF" fill-opacity=".7" fill-rule="nonzero" d="M15.978 6.5a.664.664 0 0 0-.52-.487l-4.815-.923L8.612.403a.667.667 0 0 0-1.226 0L5.356 5.09.54 6.013a.664.664 0 0 0-.302 1.166l3.679 3.065-1.231 4.926a.67.67 0 0 0 .244.694.67.67 0 0 0 .733.048L8 13.435l4.335 2.477a.67.67 0 0 0 .733-.048.668.668 0 0 0 .244-.694l-1.23-4.926 3.678-3.065a.666.666 0 0 0 .219-.68zm-5.073 2.987a.67.67 0 0 0-.22.673l.955 3.818-3.31-1.892a.67.67 0 0 0-.663 0l-3.31 1.892.954-3.816a.66.66 0 0 0-.221-.673L2.174 7.056 5.95 6.33a.666.666 0 0 0 .485-.39l1.562-3.597 1.56 3.6a.664.664 0 0 0 .486.39l3.777.724-2.916 2.429z"/>
        <path d="M-2-2h20v20H-2z"/>
    </g>
</svg>
