<svg xmlns="http://www.w3.org/2000/svg" width="108" height="95" viewBox="0 0 108 95">
    <g fill="none" fill-rule="evenodd">
        <path fill="#FFF" d="M79.491 12.385l.088.053.09.056.072.072.067.087.05.087.038.103.023.094.006.109-.006.103-.194 1.291-.167 1.032-.029.144-.162.88-.209 1.025-.221 1.023-.241 1.011-.26 1.017-.282 1.01-.285 1.001-.317.995-.323.995-.345.989-.356.98-.386.972-.39.967-.412.967-.421.957-.44.945-.466.945-.472.927-.488.932-.507.914-8.276-6.84-2.293-1.896 16.741-13.838.161-.1.096-.037.1-.022.106-.01h.104l.102.025zM69.416 40.067l-1.204 1.675-.634.836-.65.823-.661.82-.672.796-.694.802-.7.776-.717.77-.728.755-.735.749-.76.733-.767.72-.776.711-.786.696-.805.683-.808.67-.83.652-.833.64-.846.633-.856.608h-.006l-1.673-1.22-.833-.636-.827-.655-.808-.67-.805-.683-.789-.696-.782-.705-.767-.727-.751-.732-.744-.743-.732-.754-.713-.77-.7-.784-.694-.792-.672-.808-.662-.81-.65-.83-.633-.836-.618-.842-.605-.855 9.727-8.05 2.293-1.895 1.543 1.278.178.131.184.122.19.112.2.087.205.078.215.06.213.043.222.038.294.012.216-.012.221-.025.22-.034.208-.06.213-.071.199-.088.19-.103.193-.115.235-.175 1.543-1.278 2.294 1.896zM29.188 12.494l16.738 13.838-2.294 1.896-8.276 6.84-.633-1.148-.488-.93-.463-.935-.459-.945-.434-.954-.428-.948-.405-.967-.39-.973-.368-.973-.355-.989-.345-.989-.317-.991-.31-.995-.289-1.005-.272-1.007-.25-1.02-.244-1.016-.213-1.017-.206-1.023-.11-.627-.073-.406-.172-1.032-.148-1.03v-.19l.025-.102.028-.1.051-.087.057-.088.076-.071.089-.066.089-.05.095-.037.101-.022.105-.01h.11l.105.026.095.034.095.053zM73.135 9.522L53.955 25.38 34.766 9.52l1.055-.383.922-.312.922-.3.935-.28.937-.262.935-.253.945-.227.95-.215.95-.2.957-.18.96-.166.957-.147.966-.13.967-.11.966-.093.973-.082.972-.059.973-.04.966-.032.98-.006 1.12.016.974.028.972.044.973.065.966.081.967.094.966.115.966.131.963.153.957.168.954.178.95.2.95.215.945.243.935.247.937.268.929.28.922.3.922.318z"/>
        <path fill="#E74C3C" d="M43.632 28.228l2.294-1.896-16.739-13.838-.082-.056-.095-.053-.095-.035-.104-.025H28.7l-.105.01-.101.022-.095.037-.089.05-.089.065-.076.072-.057.088-.05.087-.03.1-.024.103v.19l.148 1.03.172 1.031.073.406.11.627.207 1.023.212 1.016.243 1.017.25 1.02.273 1.007.289 1.005.31.995.317.991.345.989.355.989.368.973.39.973.405.967.428.948.434.954.459.945.463.936.488.93.633 1.147 8.276-6.84zm24.58 13.514l1.204-1.675-9.73-8.05-2.294-1.896-1.543 1.28-.235.174-.193.115-.19.103-.2.087-.212.072-.209.06-.219.034-.221.025-.216.012-.294-.012-.222-.038-.212-.043-.216-.06-.206-.078-.2-.087-.19-.112-.183-.122-.178-.13-1.543-1.28-2.293 1.897-9.727 8.05.605.854.618.842.633.836.65.83.662.81.672.808.694.792.7.783.713.77.732.755.744.742.75.733.768.727.782.705.79.695.804.683.808.67.827.656.833.636 1.673 1.22h.006l.856-.609.846-.633.833-.64.83-.65.808-.671.805-.683.786-.696.776-.711.767-.72.76-.733.735-.749.729-.755.716-.77.7-.777.694-.801.671-.795.662-.82.65-.824.634-.836zM53.954 25.381L73.135 9.52l-.912-.333-.922-.318-.922-.3-.929-.28-.937-.268-.935-.247-.944-.243-.95-.215-.95-.2-.955-.178-.957-.168-.963-.153-.966-.13-.966-.116-.967-.094-.966-.081-.973-.065-.973-.044-.972-.028-1.122-.016-.979.006-.966.032-.973.04-.972.06-.973.08-.966.094-.967.11-.966.13-.957.147-.96.165-.957.181-.95.2-.95.215-.945.227-.935.253-.937.262-.935.28-.922.3-.922.312-1.055.384L53.954 25.38zm25.971-12.335l-.006-.11-.023-.093-.038-.103-.05-.087-.067-.087-.073-.072-.088-.056-.089-.053-.104-.035-.102-.025h-.105l-.104.01-.101.022-.096.037-.161.1-16.742 13.838 2.295 1.896 8.275 6.84.507-.914.488-.932.472-.927.466-.945.44-.945.421-.957.412-.967.39-.967.386-.973.355-.98.346-.988.323-.995.317-.995.285-1 .282-1.011.26-1.017.24-1.01.222-1.024.21-1.026.161-.88.029-.143.167-1.032.194-1.291.006-.103zm5.9-.115v.333l-.026.334-.035.327-.266 1.778-.19 1.08-.2 1.072-.222 1.073-.243 1.07-.25 1.066-.273 1.06-.295 1.055-.31 1.051-.324 1.048-.339 1.038-.36 1.039-.368 1.032-.4 1.023-.405 1.017-.427 1.01-.444 1.002-.456 1-.472.99-.495.979-.5.976-.523.964-.539.96-.551.952-.57.935-.583.933-.596.92-.612.917-.633.898-.643.892-.656.88-.672.873-.684.864-.7.848-.713.836-.726.83-.744.82-.751.798-.767.792-.78.786-.788.761-.805.755-.818.748-.826.727-.84.72-.856.696-.864.69-.869.676-.884.661-.9.646-.906.633-.912.624-.931.605-.929.586-1.53-.982-.922-.609-.916-.623-.9-.646-.886-.655-.875-.677-.871-.68-.853-.698-.842-.711-.834-.72-.823-.743-.805-.748-.795-.761-.789-.777-.767-.792-.76-.799-.745-.807-.729-.827-.722-.836-.7-.842-.694-.857-.675-.87-.665-.88-.64-.886-.637-.901-.618-.908-.605-.914-.59-.932-.573-.936-.56-.945-.54-.957-.532-.96-.507-.974-.494-.98-.487-.988-.457-.995-.45-1-.434-1.005-.415-1.017-.396-1.023-.383-1.023-.362-1.038-.348-1.039-.33-1.045-.316-1.048-.295-1.05-.282-1.064-.257-1.06-.25-1.067-.222-1.076-.212-1.073-.193-1.076-.178-1.082-.155-1.083-.05-.623-.01-.328.016-.337.028-.324.044-.327.07-.325.073-.33.092-.303.003-.01.117-.311.127-.306.146-.305.155-.29.177-.284.184-.265.207-.272.215-.252.228-.24.244-.234.25-.219.266-.209.273-.187.279-.184.297-.165 1.784-.91.92-.444.921-.42.934-.406.938-.403.95-.368.951-.364.96-.347.963-.327.976-.312.97-.296.982-.278.989-.262.988-.246.995-.234.995-.21 1-.196 1.005-.184 1.008-.156 1.01-.146L46.82.655l1.018-.11 1.016-.093 1.017-.08 1.02-.06 1.024-.04L52.931.24l1.023-.006 2.012.037 1.017.04 1.02.06 1.017.072 1.017.096 1.017.11 1.011.13 1.01.144 1.009.162 1.004.178 1 .2 1.006.209.985.234.995.246.982.262.979.274.982.3.963.312.967.324.96.35.956.355.944.38.944.393.929.403.928.43.913.437.915.455.9.468.545.324.272.19.267.203.25.218.244.234.228.237.222.256.2.259.19.278.177.283.161.29.146.3.127.302.12.315.016.05v.003l.077.26.085.324.063.32.054.328.028.334.016.328z"/>
        <path fill="#000" d="M84.664 11.07l-.182-.138-.192-.13-.2-.116-.207-.103-.213-.087-.222-.071-.22-.052-.23-.043-.226-.02-.237-.008-.23.007-.226.028-.23.036-.228.06-.222.071-.205.087-.214.11-.192.116-.323.233-1.748 1.445-16.741 13.836-4.585 3.79-1.542 1.28-.234.173-.193.116-.192.102-.198.087-.214.072-.208.06-.219.035-.221.023-.216.013-.294-.013-.222-.036-.213-.043-.214-.06-.206-.079-.2-.087-.19-.11-.185-.123-.177-.13-1.541-1.28-4.586-3.79-16.739-13.836-1.747-1.445-.185-.139-.192-.13-.198-.118-.206-.093-.221-.087-.222-.066-.221-.051-.229-.044-.23-.013-.233-.007-.23.012-.229.023-.229.052-.226.056-.216.074-.214.095-.206.1-.198.123-.184.13-.302.262 5.298 4.38.008.006 15.258 12.612 4.585 3.79 1.94 1.606.244.189.25.182.258.159.273.154.274.135.286.118.29.108.294.095.302.072.301.059.302.05.31.03.412.014.304-.015.308-.02.31-.036.302-.06.304-.07.294-.088.287-.103.289-.115.278-.13.266-.147.265-.154.258-.174.326-.253 1.94-1.605 4.585-3.79 15.26-12.613.005-.005 5.299-4.38z" opacity=".12"/>
        <path fill="#FFF" d="M79.491 12.385l.088.053.09.056.072.072.067.087.05.087.038.103.023.094.006.109-.006.103-.194 1.291-.167 1.032-.029.144-.162.88-.209 1.025-.221 1.023-.241 1.011-.26 1.017-.282 1.01-.285 1.001-.317.995-.323.995-.345.989-.356.98-.386.972-.39.967-.412.967-.421.957-.44.945-.466.945-.472.927-.488.932-.507.914-8.276-6.84-2.293-1.896 16.741-13.838.161-.1.096-.037.1-.022.106-.01h.104l.102.025zM69.416 40.067l-1.204 1.675-.634.836-.65.823-.661.82-.672.796-.694.802-.7.776-.717.77-.728.755-.735.749-.76.733-.767.72-.776.711-.786.696-.805.683-.808.67-.83.652-.833.64-.846.633-.856.608h-.006l-1.673-1.22-.833-.636-.827-.655-.808-.67-.805-.683-.789-.696-.782-.705-.767-.727-.751-.732-.744-.743-.732-.754-.713-.77-.7-.784-.694-.792-.672-.808-.662-.81-.65-.83-.633-.836-.618-.842-.605-.855 9.727-8.05 2.293-1.895 1.543 1.278.178.131.184.122.19.112.2.087.205.078.215.06.213.043.222.038.294.012.216-.012.221-.025.22-.034.208-.06.213-.071.199-.088.19-.103.193-.115.235-.175 1.543-1.278 2.294 1.896zM29.188 12.494l16.738 13.838-2.294 1.896-8.276 6.84-.633-1.148-.488-.93-.463-.935-.459-.945-.434-.954-.428-.948-.405-.967-.39-.973-.368-.973-.355-.989-.345-.989-.317-.991-.31-.995-.289-1.005-.272-1.007-.25-1.02-.244-1.016-.213-1.017-.206-1.023-.11-.627-.073-.406-.172-1.032-.148-1.03v-.19l.025-.102.028-.1.051-.087.057-.088.076-.071.089-.066.089-.05.095-.037.101-.022.105-.01h.11l.105.026.095.034.095.053zM73.135 9.522L53.955 25.38 34.766 9.52l1.055-.383.922-.312.922-.3.935-.28.937-.262.935-.253.945-.227.95-.215.95-.2.957-.18.96-.166.957-.147.966-.13.967-.11.966-.093.973-.082.972-.059.973-.04.966-.032.98-.006 1.12.016.974.028.972.044.973.065.966.081.967.094.966.115.966.131.963.153.957.168.954.178.95.2.95.215.945.243.935.247.937.268.929.28.922.3.922.318z"/>
        <path fill="#000" d="M84.664 11.07l-.182-.138-.192-.13-.2-.116-.207-.103-.213-.087-.222-.071-.22-.052-.23-.043-.226-.02-.237-.008-.23.007-.226.028-.23.036-.228.06-.222.071-.205.087-.214.11-.192.116-.323.233-1.748 1.445-16.741 13.836-4.585 3.79-1.542 1.28-.234.173-.193.116-.192.102-.198.087-.214.072-.208.06-.219.035-.221.023-.216.013-.294-.013-.222-.036-.213-.043-.214-.06-.206-.079-.2-.087-.19-.11-.185-.123-.177-.13-1.541-1.28-4.586-3.79-16.739-13.836-1.747-1.445-.185-.139-.192-.13-.198-.118-.206-.093-.221-.087-.222-.066-.221-.051-.229-.044-.23-.013-.233-.007-.23.012-.229.023-.229.052-.226.056-.216.074-.214.095-.206.1-.198.123-.184.13-.302.262 5.298 4.38.008.006 15.258 12.612 4.585 3.79 1.94 1.606.244.189.25.182.258.159.273.154.274.135.286.118.29.108.294.095.302.072.301.059.302.05.31.03.412.014.304-.015.308-.02.31-.036.302-.06.304-.07.294-.088.287-.103.289-.115.278-.13.266-.147.265-.154.258-.174.326-.253 1.94-1.605 4.585-3.79 15.26-12.613.005-.005 5.299-4.38z" opacity=".12"/>
        <path fill="#FFF" d="M79.491 12.385l.088.053.09.056.072.072.067.087.05.087.038.103.023.094.006.109-.006.103-.194 1.291-.167 1.032-.029.144-.162.88-.209 1.025-.221 1.023-.241 1.011-.26 1.017-.282 1.01-.285 1.001-.317.995-.323.995-.345.989-.356.98-.386.972-.39.967-.412.967-.421.957-.44.945-.466.945-.472.927-.488.932-.507.914-8.276-6.84-2.293-1.896 16.741-13.838.161-.1.096-.037.1-.022.106-.01h.104l.102.025zM69.416 40.067l-1.204 1.675-.634.836-.65.823-.661.82-.672.796-.694.802-.7.776-.717.77-.728.755-.735.749-.76.733-.767.72-.776.711-.786.696-.805.683-.808.67-.83.652-.833.64-.846.633-.856.608h-.006l-1.673-1.22-.833-.636-.827-.655-.808-.67-.805-.683-.789-.696-.782-.705-.767-.727-.751-.732-.744-.743-.732-.754-.713-.77-.7-.784-.694-.792-.672-.808-.662-.81-.65-.83-.633-.836-.618-.842-.605-.855 9.727-8.05 2.293-1.895 1.543 1.278.178.131.184.122.19.112.2.087.205.078.215.06.213.043.222.038.294.012.216-.012.221-.025.22-.034.208-.06.213-.071.199-.088.19-.103.193-.115.235-.175 1.543-1.278 2.294 1.896zM29.188 12.494l16.738 13.838-2.294 1.896-8.276 6.84-.633-1.148-.488-.93-.463-.935-.459-.945-.434-.954-.428-.948-.405-.967-.39-.973-.368-.973-.355-.989-.345-.989-.317-.991-.31-.995-.289-1.005-.272-1.007-.25-1.02-.244-1.016-.213-1.017-.206-1.023-.11-.627-.073-.406-.172-1.032-.148-1.03v-.19l.025-.102.028-.1.051-.087.057-.088.076-.071.089-.066.089-.05.095-.037.101-.022.105-.01h.11l.105.026.095.034.095.053zM73.135 9.522L53.955 25.38 34.766 9.52l1.055-.383.922-.312.922-.3.935-.28.937-.262.935-.253.945-.227.95-.215.95-.2.957-.18.96-.166.957-.147.966-.13.967-.11.966-.093.973-.082.972-.059.973-.04.966-.032.98-.006 1.12.016.974.028.972.044.973.065.966.081.967.094.966.115.966.131.963.153.957.168.954.178.95.2.95.215.945.243.935.247.937.268.929.28.922.3.922.318z"/>
        <path fill="#000" d="M84.664 11.07l-.182-.138-.192-.13-.2-.116-.207-.103-.213-.087-.222-.071-.22-.052-.23-.043-.226-.02-.237-.008-.23.007-.226.028-.23.036-.228.06-.222.071-.205.087-.214.11-.192.116-.323.233-1.748 1.445-16.741 13.836-4.585 3.79-1.542 1.28-.234.173-.193.116-.192.102-.198.087-.214.072-.208.06-.219.035-.221.023-.216.013-.294-.013-.222-.036-.213-.043-.214-.06-.206-.079-.2-.087-.19-.11-.185-.123-.177-.13-1.541-1.28-4.586-3.79-16.739-13.836-1.747-1.445-.185-.139-.192-.13-.198-.118-.206-.093-.221-.087-.222-.066-.221-.051-.229-.044-.23-.013-.233-.007-.23.012-.229.023-.229.052-.226.056-.216.074-.214.095-.206.1-.198.123-.184.13-.302.262 5.298 4.38.008.006 15.258 12.612 4.585 3.79 1.94 1.606.244.189.25.182.258.159.273.154.274.135.286.118.29.108.294.095.302.072.301.059.302.05.31.03.412.014.304-.015.308-.02.31-.036.302-.06.304-.07.294-.088.287-.103.289-.115.278-.13.266-.147.265-.154.258-.174.326-.253 1.94-1.605 4.585-3.79 15.26-12.613.005-.005 5.299-4.38z" opacity=".12"/>
        <path fill="#FFF" d="M79.491 12.385l.088.053.09.056.072.072.067.087.05.087.038.103.023.094.006.109-.006.103-.194 1.291-.167 1.032-.029.144-.162.88-.209 1.025-.221 1.023-.241 1.011-.26 1.017-.282 1.01-.285 1.001-.317.995-.323.995-.345.989-.356.98-.386.972-.39.967-.412.967-.421.957-.44.945-.466.945-.472.927-.488.932-.507.914-8.276-6.84-2.293-1.896 16.741-13.838.161-.1.096-.037.1-.022.106-.01h.104l.102.025zM69.416 40.067l-1.204 1.675-.634.836-.65.823-.661.82-.672.796-.694.802-.7.776-.717.77-.728.755-.735.749-.76.733-.767.72-.776.711-.786.696-.805.683-.808.67-.83.652-.833.64-.846.633-.856.608h-.006l-1.673-1.22-.833-.636-.827-.655-.808-.67-.805-.683-.789-.696-.782-.705-.767-.727-.751-.732-.744-.743-.732-.754-.713-.77-.7-.784-.694-.792-.672-.808-.662-.81-.65-.83-.633-.836-.618-.842-.605-.855 9.727-8.05 2.293-1.895 1.543 1.278.178.131.184.122.19.112.2.087.205.078.215.06.213.043.222.038.294.012.216-.012.221-.025.22-.034.208-.06.213-.071.199-.088.19-.103.193-.115.235-.175 1.543-1.278 2.294 1.896zM29.188 12.494l16.738 13.838-2.294 1.896-8.276 6.84-.633-1.148-.488-.93-.463-.935-.459-.945-.434-.954-.428-.948-.405-.967-.39-.973-.368-.973-.355-.989-.345-.989-.317-.991-.31-.995-.289-1.005-.272-1.007-.25-1.02-.244-1.016-.213-1.017-.206-1.023-.11-.627-.073-.406-.172-1.032-.148-1.03v-.19l.025-.102.028-.1.051-.087.057-.088.076-.071.089-.066.089-.05.095-.037.101-.022.105-.01h.11l.105.026.095.034.095.053zM73.135 9.522L53.955 25.38 34.766 9.52l1.055-.383.922-.312.922-.3.935-.28.937-.262.935-.253.945-.227.95-.215.95-.2.957-.18.96-.166.957-.147.966-.13.967-.11.966-.093.973-.082.972-.059.973-.04.966-.032.98-.006 1.12.016.974.028.972.044.973.065.966.081.967.094.966.115.966.131.963.153.957.168.954.178.95.2.95.215.945.243.935.247.937.268.929.28.922.3.922.318z"/>
        <path fill="#000" d="M84.664 11.07l-.182-.138-.192-.13-.2-.116-.207-.103-.213-.087-.222-.071-.22-.052-.23-.043-.226-.02-.237-.008-.23.007-.226.028-.23.036-.228.06-.222.071-.205.087-.214.11-.192.116-.323.233-1.748 1.445-16.741 13.836-4.585 3.79-1.542 1.28-.234.173-.193.116-.192.102-.198.087-.214.072-.208.06-.219.035-.221.023-.216.013-.294-.013-.222-.036-.213-.043-.214-.06-.206-.079-.2-.087-.19-.11-.185-.123-.177-.13-1.541-1.28-4.586-3.79-16.739-13.836-1.747-1.445-.185-.139-.192-.13-.198-.118-.206-.093-.221-.087-.222-.066-.221-.051-.229-.044-.23-.013-.233-.007-.23.012-.229.023-.229.052-.226.056-.216.074-.214.095-.206.1-.198.123-.184.13-.302.262 5.298 4.38.008.006 15.258 12.612 4.585 3.79 1.94 1.606.244.189.25.182.258.159.273.154.274.135.286.118.29.108.294.095.302.072.301.059.302.05.31.03.412.014.304-.015.308-.02.31-.036.302-.06.304-.07.294-.088.287-.103.289-.115.278-.13.266-.147.265-.154.258-.174.326-.253 1.94-1.605 4.585-3.79 15.26-12.613.005-.005 5.299-4.38z" opacity=".12"/>
        <g>
            <path fill="#FFF" d="M79.491 12.385l.088.053.09.056.072.072.067.087.05.087.038.103.023.094.006.109-.006.103-.194 1.291-.167 1.032-.029.144-.162.88-.209 1.025-.221 1.023-.241 1.011-.26 1.017-.282 1.01-.285 1.001-.317.995-.323.995-.345.989-.356.98-.386.972-.39.967-.412.967-.421.957-.44.945-.466.945-.472.927-.488.932-.507.914-8.276-6.84-2.293-1.896 16.741-13.838.161-.1.096-.037.1-.022.106-.01h.104l.102.025zM69.416 40.067l-1.204 1.675-.634.836-.65.823-.661.82-.672.796-.694.802-.7.776-.717.77-.728.755-.735.749-.76.733-.767.72-.776.711-.786.696-.805.683-.808.67-.83.652-.833.64-.846.633-.856.608h-.006l-1.673-1.22-.833-.636-.827-.655-.808-.67-.805-.683-.789-.696-.782-.705-.767-.727-.751-.732-.744-.743-.732-.754-.713-.77-.7-.784-.694-.792-.672-.808-.662-.81-.65-.83-.633-.836-.618-.842-.605-.855 9.727-8.05 2.293-1.895 1.543 1.278.178.131.184.122.19.112.2.087.205.078.215.06.213.043.222.038.294.012.216-.012.221-.025.22-.034.208-.06.213-.071.199-.088.19-.103.193-.115.235-.175 1.543-1.278 2.294 1.896zM29.188 12.494l16.738 13.838-2.294 1.896-8.276 6.84-.633-1.148-.488-.93-.463-.935-.459-.945-.434-.954-.428-.948-.405-.967-.39-.973-.368-.973-.355-.989-.345-.989-.317-.991-.31-.995-.289-1.005-.272-1.007-.25-1.02-.244-1.016-.213-1.017-.206-1.023-.11-.627-.073-.406-.172-1.032-.148-1.03v-.19l.025-.102.028-.1.051-.087.057-.088.076-.071.089-.066.089-.05.095-.037.101-.022.105-.01h.11l.105.026.095.034.095.053zM73.135 9.522L53.955 25.38 34.766 9.52l1.055-.383.922-.312.922-.3.935-.28.937-.262.935-.253.945-.227.95-.215.95-.2.957-.18.96-.166.957-.147.966-.13.967-.11.966-.093.973-.082.972-.059.973-.04.966-.032.98-.006 1.12.016.974.028.972.044.973.065.966.081.967.094.966.115.966.131.963.153.957.168.954.178.95.2.95.215.945.243.935.247.937.268.929.28.922.3.922.318z"/>
            <path fill="#E74C3C" d="M43.632 28.228l2.294-1.896-16.739-13.838-.082-.056-.095-.053-.095-.035-.104-.025H28.7l-.105.01-.101.022-.095.037-.089.05-.089.065-.076.072-.057.088-.05.087-.03.1-.024.103v.19l.148 1.03.172 1.031.073.406.11.627.207 1.023.212 1.016.243 1.017.25 1.02.273 1.007.289 1.005.31.995.317.991.345.989.355.989.368.973.39.973.405.967.428.948.434.954.459.945.463.936.488.93.633 1.147 8.276-6.84zm24.58 13.514l1.204-1.675-9.73-8.05-2.294-1.896-1.543 1.28-.235.174-.193.115-.19.103-.2.087-.212.072-.209.06-.219.034-.221.025-.216.012-.294-.012-.222-.038-.212-.043-.216-.06-.206-.078-.2-.087-.19-.112-.183-.122-.178-.13-1.543-1.28-2.293 1.897-9.727 8.05.605.854.618.842.633.836.65.83.662.81.672.808.694.792.7.783.713.77.732.755.744.742.75.733.768.727.782.705.79.695.804.683.808.67.827.656.833.636 1.673 1.22h.006l.856-.609.846-.633.833-.64.83-.65.808-.671.805-.683.786-.696.776-.711.767-.72.76-.733.735-.749.729-.755.716-.77.7-.777.694-.801.671-.795.662-.82.65-.824.634-.836zM53.954 25.381L73.135 9.52l-.912-.333-.922-.318-.922-.3-.929-.28-.937-.268-.935-.247-.944-.243-.95-.215-.95-.2-.955-.178-.957-.168-.963-.153-.966-.13-.966-.116-.967-.094-.966-.081-.973-.065-.973-.044-.972-.028-1.122-.016-.979.006-.966.032-.973.04-.972.06-.973.08-.966.094-.967.11-.966.13-.957.147-.96.165-.957.181-.95.2-.95.215-.945.227-.935.253-.937.262-.935.28-.922.3-.922.312-1.055.384L53.954 25.38zm25.971-12.335l-.006-.11-.023-.093-.038-.103-.05-.087-.067-.087-.073-.072-.088-.056-.089-.053-.104-.035-.102-.025h-.105l-.104.01-.101.022-.096.037-.161.1-16.742 13.838 2.295 1.896 8.275 6.84.507-.914.488-.932.472-.927.466-.945.44-.945.421-.957.412-.967.39-.967.386-.973.355-.98.346-.988.323-.995.317-.995.285-1 .282-1.011.26-1.017.24-1.01.222-1.024.21-1.026.161-.88.029-.143.167-1.032.194-1.291.006-.103zm5.9-.115v.333l-.026.334-.035.327-.266 1.778-.19 1.08-.2 1.072-.222 1.073-.243 1.07-.25 1.066-.273 1.06-.295 1.055-.31 1.051-.324 1.048-.339 1.038-.36 1.039-.368 1.032-.4 1.023-.405 1.017-.427 1.01-.444 1.002-.456 1-.472.99-.495.979-.5.976-.523.964-.539.96-.551.952-.57.935-.583.933-.596.92-.612.917-.633.898-.643.892-.656.88-.672.873-.684.864-.7.848-.713.836-.726.83-.744.82-.751.798-.767.792-.78.786-.788.761-.805.755-.818.748-.826.727-.84.72-.856.696-.864.69-.869.676-.884.661-.9.646-.906.633-.912.624-.931.605-.929.586-1.53-.982-.922-.609-.916-.623-.9-.646-.886-.655-.875-.677-.871-.68-.853-.698-.842-.711-.834-.72-.823-.743-.805-.748-.795-.761-.789-.777-.767-.792-.76-.799-.745-.807-.729-.827-.722-.836-.7-.842-.694-.857-.675-.87-.665-.88-.64-.886-.637-.901-.618-.908-.605-.914-.59-.932-.573-.936-.56-.945-.54-.957-.532-.96-.507-.974-.494-.98-.487-.988-.457-.995-.45-1-.434-1.005-.415-1.017-.396-1.023-.383-1.023-.362-1.038-.348-1.039-.33-1.045-.316-1.048-.295-1.05-.282-1.064-.257-1.06-.25-1.067-.222-1.076-.212-1.073-.193-1.076-.178-1.082-.155-1.083-.05-.623-.01-.328.016-.337.028-.324.044-.327.07-.325.073-.33.092-.303.003-.01.117-.311.127-.306.146-.305.155-.29.177-.284.184-.265.207-.272.215-.252.228-.24.244-.234.25-.219.266-.209.273-.187.279-.184.297-.165 1.784-.91.92-.444.921-.42.934-.406.938-.403.95-.368.951-.364.96-.347.963-.327.976-.312.97-.296.982-.278.989-.262.988-.246.995-.234.995-.21 1-.196 1.005-.184 1.008-.156 1.01-.146L46.82.655l1.018-.11 1.016-.093 1.017-.08 1.02-.06 1.024-.04L52.931.24l1.023-.006 2.012.037 1.017.04 1.02.06 1.017.072 1.017.096 1.017.11 1.011.13 1.01.144 1.009.162 1.004.178 1 .2 1.006.209.985.234.995.246.982.262.979.274.982.3.963.312.967.324.96.35.956.355.944.38.944.393.929.403.928.43.913.437.915.455.9.468.545.324.272.19.267.203.25.218.244.234.228.237.222.256.2.259.19.278.177.283.161.29.146.3.127.302.12.315.016.05v.003l.077.26.085.324.063.32.054.328.028.334.016.328z"/>
            <path fill="#000" d="M84.664 11.07l-.182-.138-.192-.13-.2-.116-.207-.103-.213-.087-.222-.071-.22-.052-.23-.043-.226-.02-.237-.008-.23.007-.226.028-.23.036-.228.06-.222.071-.205.087-.214.11-.192.116-.323.233-1.748 1.445-16.741 13.836-4.585 3.79-1.542 1.28-.234.173-.193.116-.192.102-.198.087-.214.072-.208.06-.219.035-.221.023-.216.013-.294-.013-.222-.036-.213-.043-.214-.06-.206-.079-.2-.087-.19-.11-.185-.123-.177-.13-1.541-1.28-4.586-3.79-16.739-13.836-1.747-1.445-.185-.139-.192-.13-.198-.118-.206-.093-.221-.087-.222-.066-.221-.051-.229-.044-.23-.013-.233-.007-.23.012-.229.023-.229.052-.226.056-.216.074-.214.095-.206.1-.198.123-.184.13-.302.262 5.298 4.38.008.006 15.258 12.612 4.585 3.79 1.94 1.606.244.189.25.182.258.159.273.154.274.135.286.118.29.108.294.095.302.072.301.059.302.05.31.03.412.014.304-.015.308-.02.31-.036.302-.06.304-.07.294-.088.287-.103.289-.115.278-.13.266-.147.265-.154.258-.174.326-.253 1.94-1.605 4.585-3.79 15.26-12.613.005-.005 5.299-4.38z" opacity=".12"/>
            <path fill="#FFF" d="M79.491 12.385l.088.053.09.056.072.072.067.087.05.087.038.103.023.094.006.109-.006.103-.194 1.291-.167 1.032-.029.144-.162.88-.209 1.025-.221 1.023-.241 1.011-.26 1.017-.282 1.01-.285 1.001-.317.995-.323.995-.345.989-.356.98-.386.972-.39.967-.412.967-.421.957-.44.945-.466.945-.472.927-.488.932-.507.914-8.276-6.84-2.293-1.896 16.741-13.838.161-.1.096-.037.1-.022.106-.01h.104l.102.025zM69.416 40.067l-1.204 1.675-.634.836-.65.823-.661.82-.672.796-.694.802-.7.776-.717.77-.728.755-.735.749-.76.733-.767.72-.776.711-.786.696-.805.683-.808.67-.83.652-.833.64-.846.633-.856.608h-.006l-1.673-1.22-.833-.636-.827-.655-.808-.67-.805-.683-.789-.696-.782-.705-.767-.727-.751-.732-.744-.743-.732-.754-.713-.77-.7-.784-.694-.792-.672-.808-.662-.81-.65-.83-.633-.836-.618-.842-.605-.855 9.727-8.05 2.293-1.895 1.543 1.278.178.131.184.122.19.112.2.087.205.078.215.06.213.043.222.038.294.012.216-.012.221-.025.22-.034.208-.06.213-.071.199-.088.19-.103.193-.115.235-.175 1.543-1.278 2.294 1.896zM29.188 12.494l16.738 13.838-2.294 1.896-8.276 6.84-.633-1.148-.488-.93-.463-.935-.459-.945-.434-.954-.428-.948-.405-.967-.39-.973-.368-.973-.355-.989-.345-.989-.317-.991-.31-.995-.289-1.005-.272-1.007-.25-1.02-.244-1.016-.213-1.017-.206-1.023-.11-.627-.073-.406-.172-1.032-.148-1.03v-.19l.025-.102.028-.1.051-.087.057-.088.076-.071.089-.066.089-.05.095-.037.101-.022.105-.01h.11l.105.026.095.034.095.053zM73.135 9.522L53.955 25.38 34.766 9.52l1.055-.383.922-.312.922-.3.935-.28.937-.262.935-.253.945-.227.95-.215.95-.2.957-.18.96-.166.957-.147.966-.13.967-.11.966-.093.973-.082.972-.059.973-.04.966-.032.98-.006 1.12.016.974.028.972.044.973.065.966.081.967.094.966.115.966.131.963.153.957.168.954.178.95.2.95.215.945.243.935.247.937.268.929.28.922.3.922.318z"/>
            <path fill="#000" d="M84.664 11.07l-.182-.138-.192-.13-.2-.116-.207-.103-.213-.087-.222-.071-.22-.052-.23-.043-.226-.02-.237-.008-.23.007-.226.028-.23.036-.228.06-.222.071-.205.087-.214.11-.192.116-.323.233-1.748 1.445-16.741 13.836-4.585 3.79-1.542 1.28-.234.173-.193.116-.192.102-.198.087-.214.072-.208.06-.219.035-.221.023-.216.013-.294-.013-.222-.036-.213-.043-.214-.06-.206-.079-.2-.087-.19-.11-.185-.123-.177-.13-1.541-1.28-4.586-3.79-16.739-13.836-1.747-1.445-.185-.139-.192-.13-.198-.118-.206-.093-.221-.087-.222-.066-.221-.051-.229-.044-.23-.013-.233-.007-.23.012-.229.023-.229.052-.226.056-.216.074-.214.095-.206.1-.198.123-.184.13-.302.262 5.298 4.38.008.006 15.258 12.612 4.585 3.79 1.94 1.606.244.189.25.182.258.159.273.154.274.135.286.118.29.108.294.095.302.072.301.059.302.05.31.03.412.014.304-.015.308-.02.31-.036.302-.06.304-.07.294-.088.287-.103.289-.115.278-.13.266-.147.265-.154.258-.174.326-.253 1.94-1.605 4.585-3.79 15.26-12.613.005-.005 5.299-4.38z" opacity=".12"/>
            <path fill="#FFF" d="M79.491 12.385l.088.053.09.056.072.072.067.087.05.087.038.103.023.094.006.109-.006.103-.194 1.291-.167 1.032-.029.144-.162.88-.209 1.025-.221 1.023-.241 1.011-.26 1.017-.282 1.01-.285 1.001-.317.995-.323.995-.345.989-.356.98-.386.972-.39.967-.412.967-.421.957-.44.945-.466.945-.472.927-.488.932-.507.914-8.276-6.84-2.293-1.896 16.741-13.838.161-.1.096-.037.1-.022.106-.01h.104l.102.025zM69.416 40.067l-1.204 1.675-.634.836-.65.823-.661.82-.672.796-.694.802-.7.776-.717.77-.728.755-.735.749-.76.733-.767.72-.776.711-.786.696-.805.683-.808.67-.83.652-.833.64-.846.633-.856.608h-.006l-1.673-1.22-.833-.636-.827-.655-.808-.67-.805-.683-.789-.696-.782-.705-.767-.727-.751-.732-.744-.743-.732-.754-.713-.77-.7-.784-.694-.792-.672-.808-.662-.81-.65-.83-.633-.836-.618-.842-.605-.855 9.727-8.05 2.293-1.895 1.543 1.278.178.131.184.122.19.112.2.087.205.078.215.06.213.043.222.038.294.012.216-.012.221-.025.22-.034.208-.06.213-.071.199-.088.19-.103.193-.115.235-.175 1.543-1.278 2.294 1.896zM29.188 12.494l16.738 13.838-2.294 1.896-8.276 6.84-.633-1.148-.488-.93-.463-.935-.459-.945-.434-.954-.428-.948-.405-.967-.39-.973-.368-.973-.355-.989-.345-.989-.317-.991-.31-.995-.289-1.005-.272-1.007-.25-1.02-.244-1.016-.213-1.017-.206-1.023-.11-.627-.073-.406-.172-1.032-.148-1.03v-.19l.025-.102.028-.1.051-.087.057-.088.076-.071.089-.066.089-.05.095-.037.101-.022.105-.01h.11l.105.026.095.034.095.053zM73.135 9.522L53.955 25.38 34.766 9.52l1.055-.383.922-.312.922-.3.935-.28.937-.262.935-.253.945-.227.95-.215.95-.2.957-.18.96-.166.957-.147.966-.13.967-.11.966-.093.973-.082.972-.059.973-.04.966-.032.98-.006 1.12.016.974.028.972.044.973.065.966.081.967.094.966.115.966.131.963.153.957.168.954.178.95.2.95.215.945.243.935.247.937.268.929.28.922.3.922.318z"/>
            <path fill="#000" d="M84.664 11.07l-.182-.138-.192-.13-.2-.116-.207-.103-.213-.087-.222-.071-.22-.052-.23-.043-.226-.02-.237-.008-.23.007-.226.028-.23.036-.228.06-.222.071-.205.087-.214.11-.192.116-.323.233-1.748 1.445-16.741 13.836-4.585 3.79-1.542 1.28-.234.173-.193.116-.192.102-.198.087-.214.072-.208.06-.219.035-.221.023-.216.013-.294-.013-.222-.036-.213-.043-.214-.06-.206-.079-.2-.087-.19-.11-.185-.123-.177-.13-1.541-1.28-4.586-3.79-16.739-13.836-1.747-1.445-.185-.139-.192-.13-.198-.118-.206-.093-.221-.087-.222-.066-.221-.051-.229-.044-.23-.013-.233-.007-.23.012-.229.023-.229.052-.226.056-.216.074-.214.095-.206.1-.198.123-.184.13-.302.262 5.298 4.38.008.006 15.258 12.612 4.585 3.79 1.94 1.606.244.189.25.182.258.159.273.154.274.135.286.118.29.108.294.095.302.072.301.059.302.05.31.03.412.014.304-.015.308-.02.31-.036.302-.06.304-.07.294-.088.287-.103.289-.115.278-.13.266-.147.265-.154.258-.174.326-.253 1.94-1.605 4.585-3.79 15.26-12.613.005-.005 5.299-4.38z" opacity=".12"/>
            <path fill="#FFF" d="M79.491 12.385l.088.053.09.056.072.072.067.087.05.087.038.103.023.094.006.109-.006.103-.194 1.291-.167 1.032-.029.144-.162.88-.209 1.025-.221 1.023-.241 1.011-.26 1.017-.282 1.01-.285 1.001-.317.995-.323.995-.345.989-.356.98-.386.972-.39.967-.412.967-.421.957-.44.945-.466.945-.472.927-.488.932-.507.914-8.276-6.84-2.293-1.896 16.741-13.838.161-.1.096-.037.1-.022.106-.01h.104l.102.025zM69.416 40.067l-1.204 1.675-.634.836-.65.823-.661.82-.672.796-.694.802-.7.776-.717.77-.728.755-.735.749-.76.733-.767.72-.776.711-.786.696-.805.683-.808.67-.83.652-.833.64-.846.633-.856.608h-.006l-1.673-1.22-.833-.636-.827-.655-.808-.67-.805-.683-.789-.696-.782-.705-.767-.727-.751-.732-.744-.743-.732-.754-.713-.77-.7-.784-.694-.792-.672-.808-.662-.81-.65-.83-.633-.836-.618-.842-.605-.855 9.727-8.05 2.293-1.895 1.543 1.278.178.131.184.122.19.112.2.087.205.078.215.06.213.043.222.038.294.012.216-.012.221-.025.22-.034.208-.06.213-.071.199-.088.19-.103.193-.115.235-.175 1.543-1.278 2.294 1.896zM29.188 12.494l16.738 13.838-2.294 1.896-8.276 6.84-.633-1.148-.488-.93-.463-.935-.459-.945-.434-.954-.428-.948-.405-.967-.39-.973-.368-.973-.355-.989-.345-.989-.317-.991-.31-.995-.289-1.005-.272-1.007-.25-1.02-.244-1.016-.213-1.017-.206-1.023-.11-.627-.073-.406-.172-1.032-.148-1.03v-.19l.025-.102.028-.1.051-.087.057-.088.076-.071.089-.066.089-.05.095-.037.101-.022.105-.01h.11l.105.026.095.034.095.053zM73.135 9.522L53.955 25.38 34.766 9.52l1.055-.383.922-.312.922-.3.935-.28.937-.262.935-.253.945-.227.95-.215.95-.2.957-.18.96-.166.957-.147.966-.13.967-.11.966-.093.973-.082.972-.059.973-.04.966-.032.98-.006 1.12.016.974.028.972.044.973.065.966.081.967.094.966.115.966.131.963.153.957.168.954.178.95.2.95.215.945.243.935.247.937.268.929.28.922.3.922.318z"/>
            <path fill="#000" d="M84.664 11.07l-.182-.138-.192-.13-.2-.116-.207-.103-.213-.087-.222-.071-.22-.052-.23-.043-.226-.02-.237-.008-.23.007-.226.028-.23.036-.228.06-.222.071-.205.087-.214.11-.192.116-.323.233-1.748 1.445-16.741 13.836-4.585 3.79-1.542 1.28-.234.173-.193.116-.192.102-.198.087-.214.072-.208.06-.219.035-.221.023-.216.013-.294-.013-.222-.036-.213-.043-.214-.06-.206-.079-.2-.087-.19-.11-.185-.123-.177-.13-1.541-1.28-4.586-3.79-16.739-13.836-1.747-1.445-.185-.139-.192-.13-.198-.118-.206-.093-.221-.087-.222-.066-.221-.051-.229-.044-.23-.013-.233-.007-.23.012-.229.023-.229.052-.226.056-.216.074-.214.095-.206.1-.198.123-.184.13-.302.262 5.298 4.38.008.006 15.258 12.612 4.585 3.79 1.94 1.606.244.189.25.182.258.159.273.154.274.135.286.118.29.108.294.095.302.072.301.059.302.05.31.03.412.014.304-.015.308-.02.31-.036.302-.06.304-.07.294-.088.287-.103.289-.115.278-.13.266-.147.265-.154.258-.174.326-.253 1.94-1.605 4.585-3.79 15.26-12.613.005-.005 5.299-4.38z" opacity=".12"/>
        </g>
        <path fill="#FFF" d="M11.367 89.52c-.108 1.505-.662 2.69-1.661 3.554-1 .865-2.316 1.297-3.95 1.297-1.788 0-3.194-.604-4.219-1.81C.512 91.352 0 89.695 0 87.588v-.855c0-1.345.236-2.53.709-3.554.472-1.025 1.147-1.811 2.025-2.359.878-.547 1.898-.821 3.06-.821 1.609 0 2.905.432 3.888 1.297.983.864 1.551 2.078 1.704 3.64H8.514c-.07-.902-.321-1.557-.752-1.964-.431-.407-1.087-.61-1.968-.61-.958 0-1.675.344-2.15 1.033-.476.688-.72 1.756-.733 3.203v1.057c0 1.511.228 2.616.685 3.314.456.698 1.176 1.047 2.16 1.047.887 0 1.55-.203 1.987-.61.437-.406.688-1.036.751-1.887h2.873zm13.086-6.994h-4.271V94.18h-2.873V82.526h-4.214v-2.334h11.358v2.334zm11.007 5.591h-5.516v3.747h6.474v2.315H27.07V80.192h9.327v2.334h-6.454v3.334h5.516v2.257zm7.378-7.925l3.581 10.144 3.563-10.144h3.773V94.18h-2.883v-3.824l.288-6.599-3.764 10.423h-1.973L41.67 83.766l.288 6.59v3.823h-2.873V80.192h3.754zm17.28 9.059v4.928h-2.873V80.192h5.439c1.047 0 1.968.192 2.763.576.795.385 1.406.93 1.834 1.638.427.708.641 1.513.641 2.416 0 1.37-.467 2.451-1.403 3.242-.935.791-2.23 1.187-3.883 1.187h-2.519zm0-2.335h2.566c.76 0 1.34-.179 1.738-.538.4-.358.599-.87.599-1.536 0-.686-.201-1.24-.604-1.662-.402-.423-.957-.64-1.666-.654h-2.634v4.39zm13.63 4.948h6.1v2.315h-8.972V80.192h2.873v11.672zm16.783-.567h-5.038l-.957 2.882H81.48l5.19-13.987h2.662l5.22 13.987h-3.055l-.967-2.882zm-4.262-2.334h3.486l-1.753-5.236-1.733 5.236zm15.728.096H99.71v5.12h-2.873V80.192h5.18c1.648 0 2.918.368 3.812 1.105.894.736 1.34 1.777 1.34 3.122 0 .954-.205 1.75-.617 2.387-.412.637-1.036 1.145-1.872 1.523l3.016 5.715v.135h-3.083l-2.615-5.12zm-2.288-2.335h2.317c.722 0 1.28-.184 1.676-.552.396-.368.594-.876.594-1.523 0-.66-.187-1.178-.56-1.556-.374-.378-.947-.567-1.72-.567H99.71v4.198z"/>
    </g>
</svg>
