<svg xmlns="http://www.w3.org/2000/svg" width="16" height="14" viewBox="0 0 16 14">
    <g fill="none" fill-rule="evenodd">
        <path fill="#000" fill-opacity=".38" fill-rule="nonzero" d="M14.667 1.667H8.47L7.333.529a.665.665 0 0 0-.47-.196h-5.53C.598.333 0 .931 0 1.667v10.666c0 .736.598 1.334 1.333 1.334h13.334c.735 0 1.333-.598 1.333-1.334V3c0-.735-.598-1.333-1.333-1.333zm0 10.666H1.333V5.667c0-.736.598-1.334 1.334-1.334h10.666c.736 0 1.334.598 1.334 1.334v6.666zM13.333 3H2.667c-.796 0-1.511.35-2 .904V1.667c0-.367.3-.667.666-.667h5.53L8 2.137a.665.665 0 0 0 .47.196h6.197c.366 0 .666.3.666.667v.904a2.662 2.662 0 0 0-2-.904z"/>
        <path d="M-2-3h20v20H-2z"/>
    </g>
</svg>
