<svg xmlns="http://www.w3.org/2000/svg" width="16" height="16" viewBox="0 0 16 16">
    <g fill="none" fill-rule="evenodd">
        <path fill="#000" fill-opacity=".38" fill-rule="nonzero" d="M15.804 4.492L11.508.196a.665.665 0 0 0-.47-.196H4.961a.663.663 0 0 0-.47.196L.194 4.492a.665.665 0 0 0-.196.47v6.075c0 .178.071.346.196.471l4.296 4.296a.665.665 0 0 0 .471.196h6.075c.178 0 .346-.07.471-.196l4.296-4.296a.665.665 0 0 0 .196-.47V4.962a.663.663 0 0 0-.196-.471zm-1.137 6.269l-3.906 3.906H5.24L1.334 10.76V5.24L5.24 1.334h5.523l3.904 3.906v5.52z"/>
        <path fill="#000" fill-opacity=".38" fill-rule="nonzero" d="M10.348 2H5.652a.334.334 0 0 0-.235.098L2.098 5.417A.334.334 0 0 0 2 5.652v4.696c0 .087.035.173.098.235l3.319 3.319a.334.334 0 0 0 .235.098h4.696a.334.334 0 0 0 .235-.098l3.319-3.319a.334.334 0 0 0 .098-.235V5.652a.334.334 0 0 0-.098-.235l-3.319-3.319A.334.334 0 0 0 10.348 2zm2.985 8.21l-3.122 3.123H5.79l-3.123-3.122V5.79L5.79 2.667h4.419l3.125 3.123v4.42z"/>
        <path fill="#000" fill-opacity=".38" fill-rule="nonzero" d="M7.333 4h1.334v5.333H7.333zM7.333 10.667h1.334V12H7.333z"/>
        <path d="M-2-2h20v20H-2z"/>
    </g>
</svg>
