<svg xmlns="http://www.w3.org/2000/svg" xmlns:xlink="http://www.w3.org/1999/xlink" width="44" height="35" version="1.1" viewBox="0 0 44 35"><title>02B50915-2265-488A-AE6B-FABF919A8991</title><desc>Created with sketchtool.</desc><g id="Mobile" fill="none" fill-rule="evenodd" stroke="none" stroke-width="1"><g id="3.0-Message-M" transform="translate(-238.000000, -853.000000)"><g id="Group-5-Copy-2" transform="translate(230.000000, 843.000000)"><g id="reply" transform="translate(30.000000, 16.000000) scale(-1, 1) translate(-30.000000, -16.000000) translate(20.000000, 6.000000)"><path id="Shape" fill="#000" fill-opacity=".38" fill-rule="nonzero" d="M12,8 L5.61066667,8 L8.64,4.97066667 L7.696,4.02666667 L3.52933333,8.19333333 C3.26866667,8.454 3.26866667,8.87666667 3.52933333,9.13733333 L7.696,13.304 L8.64,12.36 L5.61066667,9.33266667 L12,9.33266667 C13.8373333,9.33266667 15.3333333,10.8286667 15.3333333,12.666 L15.3333333,15.9993333 L16.6666667,15.9993333 L16.6666667,12.666 C16.6666667,10.0933333 14.5726667,7.99933333 12,7.99933333 L12,8 Z"/><polygon id="Shape" points="0 0 20 0 20 20 0 20"/></g><text id="Forward" fill="#000" fill-opacity=".38" font-family="Lato-Regular, Lato" font-size="12" font-weight="normal"><tspan x="7.44" y="44">Forward</tspan></text></g></g></g></svg>