<svg xmlns="http://www.w3.org/2000/svg" width="18" height="18" viewBox="0 0 18 18">
    <g fill="none" fill-rule="evenodd">
        <path fill="#000" fill-opacity=".38" fill-rule="nonzero" d="M16.2.2h-4.8c-.882 0-1.6.718-1.6 1.6v4.8c0 .882.718 1.6 1.6 1.6h4.8c.882 0 1.6-.718 1.6-1.6V1.8c0-.882-.718-1.6-1.6-1.6zm0 6.4h-4.8V1.8h4.8v4.8zM17.4 9.8h-7.2c-.22 0-.4.18-.4.4v7.2c0 .22.18.4.4.4h7.2c.22 0 .4-.18.4-.4v-7.2c0-.22-.18-.4-.4-.4zM17 17h-6.4v-6.4H17V17zM7.8 9.8H.6c-.22 0-.4.18-.4.4v7.2c0 .22.18.4.4.4h7.2c.22 0 .4-.18.4-.4v-7.2c0-.22-.18-.4-.4-.4zM7.4 17H1v-6.4h6.4V17zM7.8.2H.6C.38.2.2.38.2.6v7.2c0 .22.18.4.4.4h7.2c.22 0 .4-.18.4-.4V.6c0-.22-.18-.4-.4-.4zm-.4 7.2H1V1h6.4v6.4z"/>
        <path d="M-3-3h24v24H-3z"/>
    </g>
</svg>
