<svg xmlns="http://www.w3.org/2000/svg" width="16" height="18" viewBox="0 0 16 18">
    <g fill="none" fill-rule="evenodd">
        <path fill="#000" fill-opacity=".38" fill-rule="nonzero" d="M1.322 13.05c.856-.315 1.333-.92 1.6-2.02C3.2 9.883 3.2 8.363 3.2 6.6c0-1.282.5-2.487 1.405-3.395A4.801 4.801 0 0 1 6.41 2.067c.02-.37.072-.74.21-1.045C6.863.478 7.325.2 8 .2c.672 0 1.134.278 1.38.822.137.305.189.676.209 1.045.673.235 1.287.62 1.805 1.138A4.778 4.778 0 0 1 12.798 6.6c0 1.762 0 3.282.278 4.43.267 1.1.745 1.705 1.6 2.02a.797.797 0 0 1 .522.75v1.6a.8.8 0 0 1-.8.8h-4.8c0 .883-.717 1.6-1.6 1.6-.882 0-1.6-.717-1.6-1.6h-4.8a.8.8 0 0 1-.8-.8v-1.6a.8.8 0 0 1 .523-.75h.001zM8 1c-.462 0-.69.147-.767.86a4.859 4.859 0 0 1 1.534 0C8.69 1.147 8.462 1 8 1zm0 16c.44 0 .8-.36.8-.8H7.2c0 .44.36.8.8.8zm-5.6-2.4h11.2v-.282c-1.058-.558-1.74-1.516-2.078-2.913-.322-1.33-.322-2.94-.322-4.805 0-1.765-1.435-3.2-3.2-3.2a3.203 3.203 0 0 0-3.2 3.2c0 1.865 0 3.475-.322 4.807-.338 1.398-1.02 2.355-2.078 2.913v.28z"/>
        <path fill="#000" fill-opacity=".38" fill-rule="nonzero" d="M8 4.2V5c-.882 0-1.6.718-1.6 1.6v1.6h-.8V6.6c0-1.322 1.078-2.4 2.4-2.4z"/>
        <path d="M-4-3h24v24H-4z"/>
    </g>
</svg>
