<svg xmlns="http://www.w3.org/2000/svg" width="18" height="20" viewBox="0 0 18 20">
    <g fill="none" fill-rule="evenodd">
        <path fill="#000" fill-opacity=".38" fill-rule="nonzero" d="M9.827 6.91a3.183 3.183 0 0 0-2.427.32 3.178 3.178 0 0 0-1.49 1.942 3.183 3.183 0 0 0 .32 2.427 3.178 3.178 0 0 0 1.942 1.49 3.178 3.178 0 0 0 2.428-.32A3.208 3.208 0 0 0 11.773 8.4 3.177 3.177 0 0 0 9.828 6.91zm.373 5.168a2.39 2.39 0 0 1-1.82.24A2.376 2.376 0 0 1 6.922 11.2a2.39 2.39 0 0 1-.24-1.82A2.376 2.376 0 0 1 7.8 7.922a2.391 2.391 0 0 1 1.82-.24 2.402 2.402 0 0 1 .58 4.395z"/>
        <path fill="#000" fill-opacity=".38" fill-rule="nonzero" d="M9.415 8.455a1.587 1.587 0 0 0-1.215.16 1.58 1.58 0 0 0-.745.973c-.11.413-.055.845.16 1.215.215.37.558.635.973.745a1.58 1.58 0 0 0 1.215-.16 1.58 1.58 0 0 0 .745-.973c.11-.415.055-.845-.16-1.215a1.59 1.59 0 0 0-.973-.745zm.358 1.752a.783.783 0 0 1-.373.485.793.793 0 0 1-.607.08.805.805 0 0 1-.565-.98.783.783 0 0 1 .373-.485.808.808 0 0 1 .605-.08.805.805 0 0 1 .567.98z"/>
        <path fill="#000" fill-opacity=".38" fill-rule="nonzero" d="M17.127 11.922l-1.79-1.035c.082-.59.082-1.19.002-1.777l1.79-1.033a1.601 1.601 0 0 0 .585-2.188l-.8-1.385a1.599 1.599 0 0 0-2.184-.585l-1.79 1.033a6.45 6.45 0 0 0-1.54-.887V1.998A1.603 1.603 0 0 0 9.8.4H8.196c-.425 0-.825.165-1.127.467-.305.303-.47.705-.47 1.133v2.067a6.72 6.72 0 0 0-.8.39c-.258.151-.506.316-.738.496l-1.79-1.035a1.576 1.576 0 0 0-1.216-.16c-.413.11-.758.375-.97.744L.29 5.887A1.6 1.6 0 0 0 .87 8.074L2.664 9.11a6.516 6.516 0 0 0-.002 1.777l-1.79 1.035a1.601 1.601 0 0 0-.585 2.188l.8 1.385a1.599 1.599 0 0 0 2.184.585l1.793-1.035c.467.365.987.662 1.538.887l-.003 2.073a1.6 1.6 0 0 0 1.598 1.597h1.605c.424 0 .824-.164 1.127-.467.302-.302.47-.705.47-1.133l.003-2.07a6.99 6.99 0 0 0 .797-.386c.26-.15.507-.318.74-.498l1.787 1.033c.37.215.803.273 1.216.16.412-.11.757-.375.97-.745l.797-1.385a1.599 1.599 0 0 0-.583-2.187l.001-.002zm-1.6 2.77l-2.275-1.317a.796.796 0 0 0-.95.113c-.268.253-.57.478-.9.67-.32.184-.665.335-1.028.442a.804.804 0 0 0-.57.765L9.8 18H8.2l.002-2.635a.802.802 0 0 0-.57-.767 4.87 4.87 0 0 1-1.929-1.113.802.802 0 0 0-.95-.11l-2.28 1.317-.8-1.385 2.28-1.317a.8.8 0 0 0 .377-.88 4.764 4.764 0 0 1 .003-2.223.8.8 0 0 0-.378-.88l-2.282-1.32.8-1.382 2.28 1.317a.796.796 0 0 0 .95-.112A4.809 4.809 0 0 1 7.63 5.398a.801.801 0 0 0 .57-.765V2h1.6v2.633c0 .353.234.665.57.767a4.87 4.87 0 0 1 1.93 1.113.798.798 0 0 0 .947.11l2.28-1.315.8 1.385-2.28 1.315a.8.8 0 0 0-.377.88 4.764 4.764 0 0 1-.003 2.222.8.8 0 0 0 .378.88l2.282 1.32-.8 1.383z"/>
        <path d="M-3-2h24v24H-3z"/>
    </g>
</svg>
