<svg xmlns="http://www.w3.org/2000/svg" width="16" height="16" viewBox="0 0 16 16">
    <g fill="none" fill-rule="evenodd">
        <path fill="#FFF" fill-opacity=".7" fill-rule="nonzero" d="M15.679 3.454L13.01.136a.36.36 0 0 0-.284-.137H3.271c-.109 0-.213.05-.284.137L.32 3.454c-.2.25-.321.566-.321.91v2.545c0 .2.164.363.364.363h1.09v7.273c0 .802.653 1.455 1.455 1.455H13.09c.802 0 1.454-.653 1.454-1.455V7.272h1.091c.2 0 .364-.163.364-.363V4.363c0-.343-.12-.66-.32-.909zM3.447.727h9.107l1.755 2.182H1.69L3.447.727zm9.643 13.818H2.91V7.272H13.09v7.273zm-11.636-8V4.363h13.09v2.182H1.455z"/>
        <path fill="#FFF" fill-opacity=".7" fill-rule="nonzero" d="M6.125 11h3.75c.621 0 1.125-.448 1.125-1s-.504-1-1.125-1h-3.75C5.504 9 5 9.448 5 10s.504 1 1.125 1zm0-1.333h3.75c.206 0 .375.15.375.333 0 .183-.169.333-.375.333h-3.75c-.206 0-.375-.15-.375-.333 0-.183.169-.333.375-.333z"/>
        <path d="M-2-2h20v20H-2z"/>
    </g>
</svg>
