<svg xmlns="http://www.w3.org/2000/svg" width="17" height="16" viewBox="0 0 17 16">
    <g fill="none" fill-rule="evenodd">
        <path fill="#FFF" fill-opacity=".7" fill-rule="nonzero" d="M16.502 10.025l-1.477-2.692h.642a1 1 0 0 0 .894-1.448L13.894.554A1.002 1.002 0 0 0 13 0c-.377 0-.727.217-.894.552L10.383 4h-6.05a.335.335 0 0 0-.292.173l-3.21 5.852c-.104.192-.165.41-.165.642v4c0 .735.598 1.333 1.333 1.333h13.334c.735 0 1.333-.598 1.333-1.333v-4c0-.232-.06-.45-.165-.642h.001zM12.702.85a.332.332 0 0 1 .596.002l2.669 5.335a.334.334 0 0 1-.3.48h-5.334a.334.334 0 0 1-.3-.48L12.702.85zm2.631 13.817H2v-4h4.083a2.672 2.672 0 0 0 2.584 2c1.239 0 2.285-.852 2.583-2h4.083v4zM11 9.333a.334.334 0 0 0-.333.334V10c0 1.102-.898 2-2 2-1.102 0-2-.898-2-2v-.333a.334.334 0 0 0-.334-.334H1.97l2.561-4.666h5.519l-.608 1.218a1 1 0 0 0 .894 1.448h3.931l1.098 2H11z"/>
        <path fill="#FFF" fill-opacity=".7" fill-rule="nonzero" d="M3.333 8H14v.667H3.333zM4 6.667h4.667v.666H4zM4.667 5.333h4V6h-4zM12.667 5.333h.666V6h-.666zM12.667 2h.666v2.667h-.666z"/>
        <path d="M-1-2h20v20H-1z"/>
    </g>
</svg>
