<svg xmlns="http://www.w3.org/2000/svg" width="16" height="14" viewBox="0 0 16 14">
    <g fill="none" fill-rule="evenodd">
        <path fill="#FFF" fill-opacity=".7" fill-rule="nonzero" d="M15.835 8.019L12.667 2.24V.993a.334.334 0 0 0-.334-.333H3.667a.334.334 0 0 0-.334.333v1.248L.165 8.02C.06 8.21 0 8.429 0 8.66v4c0 .735.598 1.333 1.333 1.333h13.334c.735 0 1.333-.598 1.333-1.333v-4c0-.232-.06-.45-.165-.642zM12 1.327v4.666H4V1.327h8zm2.667 11.333H1.333v-4h4.084a2.672 2.672 0 0 0 2.583 2c1.24 0 2.285-.852 2.583-2h4.084v4zm-4.334-5.333A.334.334 0 0 0 10 7.66v.333c0 1.102-.898 2-2 2-1.102 0-2-.898-2-2V7.66a.334.334 0 0 0-.333-.333H1.304l2.03-3.7v2.366h-.667v.667h10.666v-.667h-.666V3.627l2.029 3.7h-4.363z"/>
        <path fill="#FFF" fill-opacity=".7" fill-rule="nonzero" d="M4.667 2.333H8V3H4.667zM4.667 3.667h6.666v.666H4.667zM4.667 5h6v.667h-6z"/>
        <path d="M-2-2h20v20H-2z"/>
    </g>
</svg>
