<svg xmlns="http://www.w3.org/2000/svg" width="12" height="16" viewBox="0 0 12 16">
    <g fill="none" fill-rule="evenodd">
        <path fill="#FFF" fill-opacity=".7" fill-rule="nonzero" d="M10.667 1.333h-2v-1A.334.334 0 0 0 8.333 0H3.667a.334.334 0 0 0-.334.333v1h-2C.598 1.333 0 1.931 0 2.667v1.666c0 .184.15.334.333.334h.334v10C.667 15.402 1.265 16 2 16h8c.735 0 1.333-.598 1.333-1.333v-10h.334c.183 0 .333-.15.333-.334V2.667c0-.736-.598-1.334-1.333-1.334zM4 .667h4v.666H4V.667zm6 14H2v-10h8v10zM1.333 4V2.667h9.334V4H1.333z"/>
        <path fill="#FFF" fill-opacity=".7" fill-rule="nonzero" d="M4.667 5.333h.666V14h-.666zM6.667 5.333h.666V14h-.666zM2.667 5.333h.666V14h-.666zM8.667 5.333h.666V14h-.666z"/>
        <path d="M-4-2h20v20H-4z"/>
    </g>
</svg>
