<svg xmlns="http://www.w3.org/2000/svg" width="217" height="216" viewBox="0 0 217 216">
    <g fill="none" fill-rule="evenodd">
        <path fill="#FFF" d="M195.525 42.206l.3.184.303.195.247.25.227.303.17.303.13.357.076.325.022.38-.022.357-.657 4.485-.57 3.586-.097.499-.55 3.055-.71 3.564-.754 3.554-.819 3.51-.882 3.532-.96 3.51-.967 3.477-1.077 3.456-1.1 3.456-1.172 3.435-1.207 3.401-1.313 3.38-1.325 3.359-1.4 3.359-1.432 3.325-1.496 3.283-1.583 3.283-1.604 3.217-1.659 3.24-1.722 3.174-28.126-23.759L136 90.655l56.897-48.07.549-.347.324-.13.343-.075.357-.033h.355l.344.087zM161 138.332l-4.088 5.782-2.151 2.885-2.205 2.842-2.248 2.831-2.281 2.746-2.356 2.766-2.377 2.681-2.431 2.66-2.475 2.605-2.495 2.583-2.581 2.53-2.603 2.487-2.636 2.455-2.669 2.4-2.732 2.358-2.743 2.315-2.818 2.25-2.83 2.207-2.872 2.186-2.904 2.099h-.02l-5.681-4.21-2.829-2.196-2.808-2.26-2.743-2.315-2.733-2.358-2.678-2.4-2.657-2.434-2.603-2.508-2.55-2.53-2.527-2.562-2.486-2.606-2.42-2.659-2.378-2.702-2.354-2.735-2.28-2.788-2.25-2.8-2.205-2.863-2.152-2.885-2.096-2.907-2.055-2.95 33.025-27.786L96.812 104l5.239 4.414.603.452.624.42.644.388.678.301.7.27.73.204.721.15.754.13 1 .043.732-.043.752-.086.744-.119.71-.204.72-.248.677-.302.645-.355.657-.398.797-.603 5.238-4.414 7.788 6.546zM24.093 42.585L81 90.655l-7.799 6.586L45.066 121l-2.155-3.987-1.658-3.228-1.573-3.25-1.561-3.283-1.477-3.315-1.454-3.294-1.378-3.358-1.326-3.38-1.25-3.38-1.206-3.435-1.174-3.434-1.077-3.445-1.055-3.456-.98-3.489-.927-3.499-.851-3.543-.83-3.531-.721-3.532-.7-3.554-.377-2.177-.248-1.409-.582-3.586L20 44.86v-.66l.086-.358.097-.347.172-.303.194-.304.259-.249.301-.227.302-.174.324-.13.344-.075.355-.033h.378l.356.087.322.119.323.184zM174 32.05L108.51 87 43 32.05l3.602-1.33 3.15-1.08 3.146-1.038 3.191-.973 3.202-.907 3.191-.876 3.225-.789 3.245-.745 3.246-.692 3.265-.627 3.278-.572 3.267-.508 3.3-.454 3.3-.378 3.298-.325 3.322-.28 3.32-.206 3.32-.14 3.3-.108 3.343-.022 3.83.054 3.32.097 3.322.152 3.32.227 3.3.28 3.3.325 3.298.4 3.3.453 3.288.53 3.267.583 3.256.616 3.245.692 3.245.746 3.224.843 3.191.853 3.202.93 3.17.972 3.148 1.038 3.148 1.102z"/>
        <path fill="#E74C3C" d="M73.372 96.94l7.808-6.566-56.979-47.92-.28-.194-.323-.183-.323-.119-.356-.086h-.379l-.356.032-.344.076-.324.13-.301.172-.303.227-.26.248-.193.303-.173.302-.097.346-.086.356v.659l.507 3.564.582 3.575.25 1.404.376 2.17.702 3.543.722 3.52.83 3.521.852 3.532.927 3.488.983 3.478 1.056 3.445 1.078 3.435 1.176 3.423 1.208 3.424 1.251 3.37 1.328 3.369 1.38 3.348 1.456 3.283 1.478 3.305 1.563 3.272 1.574 3.24 1.661 3.219 2.157 3.974 28.172-23.684zm83.672 46.797l4.099-5.8-33.122-27.874-7.808-6.567-5.252 4.428-.8.605-.657.4-.647.356-.68.303-.721.248-.713.205-.744.119-.754.086-.735.044-1.003-.044-.755-.13-.722-.15-.733-.206-.702-.27-.68-.302-.645-.389-.626-.421-.605-.454-5.252-4.428-7.808 6.567-33.11 27.875 2.06 2.959 2.101 2.916 2.157 2.894 2.212 2.873 2.254 2.808 2.287 2.797 2.36 2.743 2.384 2.711 2.427 2.668 2.493 2.613 2.533 2.57 2.556 2.539 2.61 2.516 2.664 2.441 2.686 2.408 2.74 2.366 2.75 2.322 2.814 2.268 2.837 2.203 5.696 4.223h.02l2.912-2.106 2.88-2.193 2.837-2.214 2.825-2.257 2.75-2.322 2.74-2.365 2.676-2.409 2.642-2.462 2.61-2.495 2.588-2.538 2.502-2.592 2.48-2.613 2.438-2.668 2.384-2.69 2.362-2.775 2.286-2.754 2.254-2.84 2.211-2.851 2.157-2.895zM108.51 87.08l65.295-54.918-3.106-1.155-3.139-1.102-3.139-1.037-3.16-.972-3.192-.928-3.182-.854-3.213-.842-3.235-.745-3.236-.691-3.247-.616-3.258-.583-3.278-.53-3.29-.453-3.288-.4-3.29-.324-3.29-.28-3.31-.227-3.313-.151-3.31-.098-3.819-.054-3.332.022-3.29.108-3.311.14-3.31.206-3.312.28-3.289.324-3.29.378-3.29.454-3.256.508-3.269.572-3.256.626-3.236.692-3.235.745-3.215.788-3.182.875-3.193.907-3.181.972-3.138 1.037-3.138 1.08-3.592 1.328L108.51 87.08zm88.409-42.714l-.023-.378-.075-.324-.13-.356-.171-.302-.227-.303-.249-.248-.302-.195-.3-.183-.357-.119-.346-.086h-.356l-.356.032-.344.076-.324.13-.55.345-56.99 47.92 7.81 6.566 28.17 23.684 1.725-3.164 1.661-3.23 1.608-3.207 1.585-3.272 1.499-3.273 1.434-3.315 1.402-3.348 1.327-3.348 1.316-3.37 1.208-3.391 1.175-3.424 1.102-3.445 1.078-3.445.97-3.467.96-3.5.884-3.52.82-3.5.755-3.542.711-3.553.552-3.045.097-.497.57-3.575.658-4.471.023-.357zm20.081-.4v1.156l-.086 1.156-.119 1.134-.905 6.156-.648 3.737-.68 3.715-.754 3.715-.83 3.705-.853 3.693-.928 3.672-1.003 3.65-1.057 3.64-1.1 3.629-1.154 3.596-1.23 3.597-1.25 3.575-1.36 3.542-1.38 3.52-1.455 3.5-1.51 3.467-1.553 3.467-1.607 3.423-1.683 3.391-1.704 3.38-1.78 3.338-1.834 3.326-1.876 3.294-1.942 3.24-1.984 3.23-2.027 3.186-2.082 3.175-2.157 3.11-2.189 3.089-2.233 3.046-2.287 3.024-2.33 2.991-2.383 2.938-2.427 2.894-2.47 2.873-2.534 2.84-2.556 2.765-2.61 2.743-2.653 2.722-2.686 2.635-2.74 2.614-2.782 2.592-2.814 2.516-2.86 2.495-2.911 2.408-2.944 2.387-2.956 2.344-3.009 2.29-3.063 2.235-3.085 2.192-3.106 2.16-3.17 2.096-3.16 2.03-5.21-3.402-3.139-2.106-3.117-2.16-3.063-2.236-3.018-2.268-2.977-2.343-2.966-2.355-2.902-2.419-2.87-2.462-2.836-2.495-2.803-2.57-2.74-2.592-2.708-2.636-2.684-2.689-2.61-2.743-2.59-2.765-2.533-2.797-2.482-2.862-2.458-2.894-2.384-2.916-2.363-2.97-2.297-3.014-2.264-3.045-2.18-3.067-2.166-3.122-2.104-3.142-2.06-3.165-2.005-3.229-1.954-3.24-1.908-3.272-1.833-3.316-1.813-3.326-1.726-3.37-1.681-3.391-1.661-3.424-1.554-3.445-1.532-3.467-1.477-3.477-1.412-3.521-1.348-3.543-1.305-3.542-1.231-3.596-1.186-3.597-1.122-3.618-1.079-3.629-1.002-3.64-.96-3.682-.874-3.672-.852-3.694-.755-3.726-.723-3.715-.658-3.726-.604-3.747-.528-3.748-.173-2.16L0 44.118l.054-1.166.096-1.124.15-1.134.24-1.123.246-1.145.313-1.047.01-.033.4-1.08.432-1.058.495-1.058.53-1.005.603-.983.625-.918.703-.94.732-.874.776-.832.832-.81.852-.756.906-.723.926-.648.95-.637 1.013-.573 6.073-3.153 3.128-1.534 3.139-1.458 3.18-1.404 3.193-1.393 3.236-1.275 3.235-1.263 3.268-1.199 3.279-1.134 3.322-1.08 3.301-1.026 3.342-.961 3.367-.907 3.365-.854L63.697 5l3.387-.723 3.408-.68 3.419-.638 3.43-.54 3.44-.507 3.442-.454 3.462-.378 3.46-.324 3.463-.28L98.08.27l3.485-.14 3.462-.108L108.51 0l6.85.13 3.462.14 3.472.205 3.462.249 3.462.334 3.462.378 3.442.454 3.44.497 3.43.561 3.419.616 3.407.691 3.42.724 3.353.81 3.388.853 3.342.907 3.333.95 3.343 1.037 3.28 1.08 3.29 1.124 3.267 1.21 3.257 1.23 3.214 1.318 3.214 1.36 3.16 1.394 3.161 1.49 3.106 1.512 3.116 1.577 3.063 1.62 1.855 1.123.928.66.906.701.852.756.832.81.775.821.756.886.678.896.648.961.605.983.549 1.004.496 1.037.432 1.048.41 1.09.053.173v.011l.26.897.29 1.123.216 1.112.183 1.134.097 1.156.054 1.134z"/>
        <path fill="#000" d="M213.425 37.647l-.62-.477-.655-.45-.68-.397-.7-.353-.727-.3-.753-.247-.752-.176-.778-.15-.77-.071-.806-.026-.78.026-.77.096-.778.125-.78.203-.752.247-.7.3-.725.379-.655.398-1.098.802-5.94 4.978-56.923 47.637-15.59 13.051-5.239 4.404-.798.6-.654.397-.655.353-.673.3-.726.247-.708.204-.744.122-.752.08-.736.045-1-.044-.753-.125-.725-.15-.726-.202-.7-.274-.682-.3-.645-.38-.628-.423-.603-.45-5.24-4.404-15.59-13.051-56.914-47.637-5.938-4.978-.63-.477-.654-.45-.674-.405-.699-.318-.752-.3-.753-.23-.753-.176-.777-.15-.78-.044-.796-.026-.78.044-.78.078-.778.178-.77.194-.735.256-.726.326-.7.344-.672.424-.628.45-1.027.9 18.016 15.082.025.017 51.876 43.428 15.59 13.052 6.595 5.525.831.651.85.628.877.547.93.53.928.467.975.406.983.371 1 .326 1.027.248 1.027.203 1.026.176 1.054.097 1.398.052 1.036-.052 1.045-.07 1.054-.125 1.027-.202 1.036-.247 1-.3.974-.354.983-.396.947-.45.901-.504.904-.53.877-.6 1.106-.872 6.595-5.525 15.59-13.052 51.885-43.428.018-.017L214 38.194z" opacity=".12"/>
    </g>
</svg>
