<svg xmlns="http://www.w3.org/2000/svg" width="32" height="32" viewBox="0 0 32 32">
    <g fill="none" fill-rule="evenodd">
        <path fill="#FFF" d="M28.746 6.37l.044.027.044.028.037.037.033.044.025.044.02.053.01.047.004.056-.004.052-.096.656-.084.524-.014.073-.081.447-.105.521-.11.52-.121.513-.13.516-.141.514-.143.508-.158.505-.162.506-.172.502-.178.497-.193.495-.195.49-.206.492-.21.486-.22.48-.233.48-.237.47-.243.474-.254.464-4.138-3.474-1.147-.963 8.371-7.029.08-.05.048-.02.05-.01.053-.005h.053l.05.012zM23.708 20.43l-.602.852-.317.424-.325.418-.33.417-.337.404-.347.407-.35.395-.358.39-.364.384-.368.38-.38.373-.383.366-.388.36-.393.354-.403.347-.404.34-.415.332-.416.324-.423.322-.428.309h-.003l-.837-.62-.416-.323-.414-.332-.404-.34-.402-.348-.394-.353-.392-.358-.383-.37-.376-.371-.372-.378-.366-.383-.356-.391-.35-.398-.347-.402-.336-.41-.331-.412-.325-.422-.317-.424-.308-.428-.303-.434 4.863-4.089 1.147-.963.772.65.088.066.092.062.095.057.1.044.103.04.108.03.106.022.11.02.148.005.108-.006.11-.013.11-.017.105-.03.106-.036.1-.045.095-.052.096-.059.118-.088.771-.65 1.147.963zM3.594 6.425l8.369 7.03-1.147.962-4.138 3.475-.317-.583-.244-.473-.23-.475-.23-.48-.218-.485-.214-.481-.202-.491-.195-.494-.184-.495-.177-.502-.173-.502-.158-.504-.156-.505-.144-.51L3.7 10.4l-.125-.518-.122-.516-.106-.517-.103-.52-.056-.318-.036-.206-.086-.524-.074-.523v-.097l.012-.052.015-.05.025-.045.029-.044.038-.037.044-.033.044-.025.048-.02.05-.01.053-.005h.055l.053.012.047.018.048.027zM25.568 4.916l-9.59 8.055-9.595-8.055.528-.195.461-.159.461-.152.467-.142.47-.133.467-.129.472-.115.475-.11.475-.101.479-.092.48-.084.478-.074.483-.067.483-.055.483-.048.487-.041.486-.03.486-.02.484-.017.49-.003.56.008.486.014.487.023.486.033.483.041.483.048.483.058.484.067.481.077.479.086.476.09.476.102.475.109.472.123.467.126.47.136.463.142.461.153.461.161z"/>
        <path fill="#E74C3C" d="M10.816 14.417l1.147-.963-8.37-7.029-.04-.028-.048-.027-.047-.018-.053-.012H3.35l-.052.005-.051.01-.048.02-.044.025-.044.033-.038.037-.029.044-.025.044-.015.051-.012.052v.097l.074.523.086.524.036.206.056.318.103.52.106.517.122.516.125.518.136.512.144.51.156.505.158.504.173.502.177.502.184.494.195.495.202.49.214.482.217.485.23.48.231.475.244.472.317.583 4.138-3.474zm12.29 6.865l.602-.851-4.865-4.089-1.147-.963-.771.65-.118.088-.096.059-.095.052-.1.044-.106.037-.105.03-.11.017-.11.013-.108.006-.147-.006-.111-.019-.106-.022-.108-.03-.103-.04-.1-.044-.095-.057-.092-.062-.088-.067-.772-.649-1.147.963-4.863 4.089.303.434.308.428.317.424.325.422.331.411.336.41.347.403.35.398.356.391.366.383.373.377.375.373.383.369.392.358.394.353.402.347.404.34.414.333.417.323.836.62h.003l.428-.309.423-.322.416-.324.415-.331.404-.341.403-.347.393-.353.388-.361.383-.366.38-.373.368-.38.364-.383.358-.391.35-.395.347-.407.336-.404.331-.417.325-.418.317-.424zm-7.129-8.31l9.59-8.056-.456-.17-.46-.161-.462-.153-.464-.142-.469-.136-.467-.126-.472-.123-.475-.11-.475-.1-.477-.091-.479-.086-.481-.077-.484-.067-.483-.058-.483-.048-.483-.041-.486-.033-.487-.023-.486-.014-.56-.008-.49.003-.484.016-.486.02-.486.031-.487.041-.483.048-.483.055-.483.067-.478.074-.48.084-.479.092-.475.101-.475.11-.472.115-.468.129-.469.133-.467.142-.46.152-.462.159-.527.195 9.593 8.055zm12.986-6.266l-.004-.056-.01-.047-.02-.053-.025-.044-.033-.044-.037-.037-.044-.028-.044-.027-.053-.018-.05-.012h-.053l-.052.005-.05.01-.048.02-.081.05-8.37 7.03 1.146.962 4.138 3.474.253-.464.244-.473.237-.47.232-.48.22-.48.211-.487.206-.491.195-.491.193-.495.178-.497.172-.502.162-.506.158-.505.143-.508.141-.514.13-.516.12-.513.111-.52.105-.521.08-.447.015-.073.084-.524.096-.656.004-.052zm2.95-.059v.17l-.014.17-.017.165-.133.903-.095.549-.1.544-.11.545-.123.544-.125.542-.136.538-.147.536-.156.534-.161.532-.17.527-.18.528-.184.524-.2.52-.203.516-.213.513-.222.509-.228.509-.236.502-.247.497-.25.496-.262.49-.27.487-.275.484-.285.475-.292.473-.297.468-.306.466-.317.456-.322.453-.328.447-.335.443-.343.439-.35.43-.356.425-.363.422-.372.416-.376.406-.383.402-.39.4-.394.386-.403.383-.408.38-.414.37-.42.366-.427.353-.433.35-.434.344-.442.336-.45.328-.453.321-.456.317-.466.307-.464.298-.765-.499-.461-.309-.458-.317-.45-.328-.443-.332-.437-.344-.436-.345-.426-.355-.422-.361-.416-.366-.412-.377-.402-.38-.398-.387-.395-.394-.383-.403-.38-.405-.372-.41-.365-.42-.36-.425-.351-.428-.347-.435-.338-.442-.332-.447-.32-.45-.318-.458-.31-.46-.302-.465-.295-.474-.286-.475-.28-.48-.27-.486-.266-.488-.254-.494-.247-.498-.244-.502-.228-.505-.225-.509-.217-.51-.207-.516-.198-.52-.192-.52-.18-.527-.175-.528-.165-.53-.158-.533-.147-.534-.142-.54-.128-.538L.55 9.89l-.11-.547-.107-.545-.097-.546-.088-.55-.078-.55-.025-.316-.005-.167.008-.17.014-.166.022-.166.035-.165.037-.168.045-.153.002-.005.059-.158.063-.156.073-.155.078-.147.088-.144.092-.135.103-.138.108-.128.114-.122.122-.119.125-.11.133-.107.136-.095.14-.094.149-.083.892-.463.46-.225.46-.214.467-.206.47-.204.474-.187.476-.185.48-.176.481-.167.488-.158.485-.15.491-.142.494-.133.495-.125.497-.119.497-.106.501-.1.502-.093.504-.08.505-.074.506-.066.508-.056.509-.047.508-.041.51-.03.512-.021.509-.016.511-.003 1.006.019.509.02.51.03.508.037.509.05.508.055.506.066.505.073.504.082.502.09.5.102.503.106.492.12.498.124.49.133.49.14.491.152.482.158.483.165.48.177.479.181.472.193.472.2.464.204.464.219.456.222.458.23.45.239.272.164.137.097.133.103.125.11.122.12.114.12.111.13.1.131.095.141.089.145.08.147.073.152.064.154.06.16.008.025v.002l.038.131.042.165.032.163.027.166.014.17.008.166z"/>
        <path fill="#000" d="M31.332 5.702l-.09-.07-.097-.066-.1-.06-.103-.051-.107-.044-.11-.037-.111-.026-.115-.022-.113-.01-.119-.004-.114.004-.114.014-.114.018-.115.03-.11.037-.103.044-.107.056-.096.058-.162.119-.873.734-8.371 7.028-2.293 1.925-.77.65-.118.088-.096.059-.096.052-.1.044-.106.036-.104.03-.11.019-.11.011-.108.007-.147-.007-.111-.018-.107-.022-.106-.03-.103-.04-.1-.045-.096-.056-.092-.062-.089-.066-.77-.65-2.293-1.925-8.37-7.028-.873-.734-.092-.07-.097-.067-.099-.06-.102-.047-.111-.044-.11-.034-.111-.026-.115-.022-.115-.006-.117-.004-.114.006-.115.012-.114.026-.114.029-.108.037-.106.049-.103.05-.1.063-.092.066-.15.133 2.649 2.225.004.002 7.628 6.407 2.293 1.925.97.815.122.096.125.093.129.08.137.079.136.069.144.06.144.054.147.048.151.037.151.03.151.026.155.014.206.008.152-.008.154-.01.155-.018.15-.03.153-.037.147-.044.143-.052.145-.059.14-.066.132-.074.133-.078.129-.089.162-.129.97-.815 2.293-1.925 7.63-6.407.003-.002 2.649-2.225z" opacity=".12"/>
    </g>
</svg>
