<svg xmlns="http://www.w3.org/2000/svg" width="68" height="64" viewBox="0 0 68 64">
    <defs>
        <linearGradient id="a" x1="100%" x2="0%" y1="0%" y2="100%">
            <stop offset="0%" stop-color="#34495E"/>
            <stop offset="100%" stop-color="#2C3E50"/>
        </linearGradient>
    </defs>
    <g fill="url(#a)" fill-rule="nonzero" transform="translate(-378)">
        <path d="M381.024 56H417c1.654 0 3-1.346 3-3V15c0-.046-.02-.086-.026-.13a.853.853 0 0 0-.026-.124.976.976 0 0 0-.244-.454L405.706.294a1.013 1.013 0 0 0-.454-.244.853.853 0 0 0-.124-.026C405.086.02 405.046 0 405 0h-23.988A3.01 3.01 0 0 0 378 3v50c0 1.654 1.356 3 3.024 3zM406 3.414L416.586 14H407c-.55 0-1-.448-1-1V3.414zM380 3c0-.552.454-1 1.012-1H404v11c0 1.654 1.346 3 3 3h11v37c0 .552-.45 1-1 1h-35.976A1.012 1.012 0 0 1 380 53V3z"/>
        <path d="M387 24h24a1 1 0 0 0 0-2h-24a1 1 0 0 0 0 2zM387 32h24a1 1 0 0 0 0-2h-24a1 1 0 0 0 0 2zM387 16h10a1 1 0 0 0 0-2h-10a1 1 0 0 0 0 2zM387 40h24a1 1 0 0 0 0-2h-24a1 1 0 0 0 0 2zM387 48h24a1 1 0 0 0 0-2h-24a1 1 0 0 0 0 2z"/>
        <path d="M421 10h9v11c0 1.654 1.346 3 3 3h11v37c0 .552-.45 1-1 1h-35.976A1.012 1.012 0 0 1 406 61v-2a1 1 0 0 0-2 0v2c0 1.654 1.356 3 3.024 3H443c1.654 0 3-1.346 3-3V23c0-.046-.02-.086-.026-.13a.853.853 0 0 0-.026-.124.976.976 0 0 0-.244-.454L431.706 8.294a.983.983 0 0 0-.456-.244.823.823 0 0 0-.122-.024C431.086 8.02 431.046 8 431 8h-10a1 1 0 0 0 0 2zm12 12c-.55 0-1-.448-1-1v-9.586L442.586 22H433z"/>
        <path d="M425 32h12a1 1 0 0 0 0-2h-12a1 1 0 0 0 0 2zM425 40h12a1 1 0 0 0 0-2h-12a1 1 0 0 0 0 2zM425 48h12a1 1 0 0 0 0-2h-12a1 1 0 0 0 0 2zM425 56h12a1 1 0 0 0 0-2h-12a1 1 0 0 0 0 2z"/>
    </g>
</svg>
