<svg xmlns="http://www.w3.org/2000/svg" width="64" height="64" viewBox="0 0 64 64">
    <defs>
        <linearGradient id="a" x1="100%" x2="0%" y1="0%" y2="100%">
            <stop offset="0%" stop-color="#34495E"/>
            <stop offset="100%" stop-color="#2C3E50"/>
        </linearGradient>
    </defs>
    <g fill="url(#a)" fill-rule="nonzero">
        <path d="M3 64h28a1 1 0 0 0 0-2H3a1 1 0 0 1-1-1V3a1 1 0 0 1 1-1h42a1 1 0 0 1 1 1v10a1 1 0 0 0 2 0V3c0-1.654-1.346-3-3-3H3C1.346 0 0 1.346 0 3v58c0 1.654 1.346 3 3 3z"/>
        <path d="M36 21v40c0 1.654 1.346 3 3 3h22c1.654 0 3-1.346 3-3V21c0-1.654-1.346-3-3-3H39c-1.654 0-3 1.346-3 3zm26 0v40a1 1 0 0 1-1 1H39a1 1 0 0 1-1-1V21a1 1 0 0 1 1-1h22a1 1 0 0 1 1 1z"/>
        <circle cx="24" cy="56" r="2"/>
        <circle cx="50" cy="56" r="2"/>
    </g>
</svg>
