<svg xmlns="http://www.w3.org/2000/svg" width="16" height="16" viewBox="0 0 16 16">
    <g fill="none" fill-rule="evenodd">
        <path fill="#FFF" fill-opacity=".7" fill-rule="nonzero" d="M1.307 4.64v1.333h4a.666.666 0 0 0 .666-.666v-4H4.64v2.389L.944 0 0 .944 3.696 4.64h-2.39zM.944 16l3.696-3.693v2.389h1.333v-4a.666.666 0 0 0-.666-.667h-4v1.334h2.389L0 15.059.944 16zM11.36 12.306L15.056 16l.944-.944-3.696-3.694h2.39v-1.333h-4a.666.666 0 0 0-.667.666v4h1.333v-2.389zM10.695 5.973h4V4.64h-2.389L16 .944 15.056 0l-3.694 3.696v-2.39h-1.333v4c0 .37.298.667.666.667z"/>
    </g>
</svg>
