<svg xmlns="http://www.w3.org/2000/svg" width="46" height="45" viewBox="0 0 46 45">
    <defs>
        <filter id="a" width="107.2%" height="112.9%" x="-3.6%" y="-5.5%" filterUnits="objectBoundingBox">
            <feOffset dy="4" in="SourceAlpha" result="shadowOffsetOuter1"/>
            <feGaussianBlur in="shadowOffsetOuter1" result="shadowBlurOuter1" stdDeviation="8"/>
            <feColorMatrix in="shadowBlurOuter1" result="shadowMatrixOuter1" values="0 0 0 0 0 0 0 0 0 0 0 0 0 0 0 0 0 0 0.38 0"/>
            <feMerge>
                <feMergeNode in="shadowMatrixOuter1"/>
                <feMergeNode in="SourceGraphic"/>
            </feMerge>
        </filter>
    </defs>
    <g fill="none" fill-rule="evenodd" filter="url(#a)" transform="translate(-620)">
        <path fill="#FFF" fill-rule="nonzero" d="M649.667 21v2.667h-13.334V21H635v2.667c0 .735.598 1.333 1.333 1.333h13.334c.735 0 1.333-.598 1.333-1.333V21h-1.333zM643 21c.17 0 .342-.065.47-.196l3.5-3.5-.943-.944-2.361 2.363V9h-1.333v9.723l-2.363-2.361-.944.944 3.5 3.5c.131.13.302.194.473.194H643z"/>
        <path d="M633 7h20v20h-20z"/>
    </g>
</svg>
