<svg xmlns="http://www.w3.org/2000/svg" width="16" height="16" viewBox="0 0 16 16">
    <g fill="none" fill-rule="evenodd">
        <path fill="#000" fill-opacity=".38" fill-rule="nonzero" d="M14.667 0H1.333C.598 0 0 .598 0 1.333v13.334C0 15.402.598 16 1.333 16h13.334c.735 0 1.333-.598 1.333-1.333V1.333C16 .598 15.402 0 14.667 0zm0 14.667H1.333L1.331 1.333h13.336v13.334z"/>
        <path fill="#000" fill-opacity=".38" fill-rule="nonzero" d="M2.333 14h11.334c.183 0 .333-.15.333-.333V2.333A.334.334 0 0 0 13.667 2H2.333A.334.334 0 0 0 2 2.333v11.334c0 .183.15.333.333.333zm2.782-.667l4.944-4.942A1.32 1.32 0 0 1 11 8.002c.356 0 .692.137.942.39l1.389 1.389v3.552H5.115zm8.218-10.666v6.172l-.918-.918A1.987 1.987 0 0 0 11 7.335c-.535 0-1.037.208-1.415.586l-5.412 5.412H2.667v-1.61l2.196-2.196a.672.672 0 0 1 .944 0l.61.61.471-.47-.61-.611a1.337 1.337 0 0 0-1.886 0l-1.725 1.725V2.666h10.666z"/>
        <path fill="#000" fill-opacity=".38" fill-rule="nonzero" d="M5.5 7C6.327 7 7 6.327 7 5.5S6.327 4 5.5 4 4 4.673 4 5.5 4.673 7 5.5 7zm0-2.4a.9.9 0 1 1 0 1.8.9.9 0 0 1 0-1.8z"/>
        <path d="M-2-2h20v20H-2z"/>
    </g>
</svg>
