<svg xmlns="http://www.w3.org/2000/svg" width="16" height="15" viewBox="0 0 16 15">
    <g fill="none" fill-rule="evenodd">
        <path fill="#000" fill-opacity=".38" fill-rule="nonzero" d="M16 .333h-4a.666.666 0 0 0-.667.667v4h1.334V2.24a6.68 6.68 0 0 1 2 4.76A6.676 6.676 0 0 1 8 13.667 6.676 6.676 0 0 1 1.333 7a6.652 6.652 0 0 1 3.032-5.59L3.635.295A7.98 7.98 0 0 0 0 7a7.969 7.969 0 0 0 2.344 5.657A7.969 7.969 0 0 0 8.001 15a7.969 7.969 0 0 0 5.656-2.344A7.969 7.969 0 0 0 16.001 7a8 8 0 0 0-.929-3.744 8.06 8.06 0 0 0-1.11-1.59H16V.334H16z"/>
        <path fill="#000" fill-opacity=".38" fill-rule="nonzero" d="M3.419 3.792a.67.67 0 0 0 .016.881l3.59 3.908c.031.032.066.069.11.106l.002.002c.25.208.554.311.858.311a1.333 1.333 0 0 0 .728-2.452L4.29 3.663a.667.667 0 0 0-.872.129zm4.952 3.32a.666.666 0 0 1 .138.985.676.676 0 0 1-.944.082.862.862 0 0 1-.061-.06L3.929 4.22 8.37 7.113z"/>
        <path d="M-2-3h20v20H-2z"/>
    </g>
</svg>
