<svg xmlns="http://www.w3.org/2000/svg" width="16" height="16" viewBox="0 0 16 16">
    <g fill="#34495E" fill-rule="evenodd">
        <path d="M15.193 2.68c.097 4.022-.85 7.314-2.856 9.87-1.09 1.388-2.453 2.51-4.09 3.388-.149.08-.349.086-.476 0-1.65-.863-3.015-1.994-4.107-3.387C1.661 9.993.705 6.7.807 2.68a.481.481 0 0 1 .417-.424 16.383 16.383 0 0 0 3.154-.72A23.54 23.54 0 0 0 7.771.06a.461.461 0 0 1 .459 0c1.23.64 2.37 1.126 3.4 1.474 1.036.35 2.093.586 3.164.721.23.03.394.212.4.424zm-.959.585a.384.384 0 0 0-.346-.364 14.163 14.163 0 0 1-2.741-.62 21.09 21.09 0 0 1-2.948-1.268.402.402 0 0 0-.398 0c-1.058.55-2.04.967-2.94 1.267-.898.3-1.813.504-2.734.62a.415.415 0 0 0-.36.365c-.089 3.459.739 6.289 2.475 8.489.946 1.198 2.13 2.17 3.56 2.912.11.075.283.069.412 0 1.418-.754 2.6-1.72 3.544-2.912 1.739-2.199 2.56-5.03 2.476-8.49z"/>
        <path fill-rule="nonzero" d="M9.649 6.52V5.495c0-.91-.74-1.65-1.65-1.65-.908 0-1.648.74-1.648 1.65v1.027a.695.695 0 0 0-.668.693V9.61c0 .383.31.694.693.694h3.248a.695.695 0 0 0 .693-.694V7.214a.695.695 0 0 0-.668-.693zM6.975 5.495c0-.566.46-1.026 1.025-1.026s1.025.46 1.025 1.026V6.52h-2.05V5.494zM9.694 9.61c0 .038-.032.07-.07.07H6.376a.071.071 0 0 1-.07-.07V7.214c0-.038.032-.07.07-.07H9.624c.038 0 .07.032.07.07V9.61z"/>
        <path fill-rule="nonzero" d="M8 7.786a.437.437 0 0 0-.312.74v.305a.312.312 0 1 0 .624 0v-.305A.435.435 0 0 0 8 7.786z"/>
    </g>
</svg>
