<svg xmlns="http://www.w3.org/2000/svg" width="15" height="16" viewBox="0 0 15 16">
    <g fill="none" fill-rule="evenodd">
        <path fill="#000" fill-opacity=".54" fill-rule="nonzero" d="M13.59 11.635A6.652 6.652 0 0 1 8 14.667 6.676 6.676 0 0 1 1.333 8 6.676 6.676 0 0 1 8 1.333c1.802 0 3.517.734 4.76 2H10v1.334h4A.666.666 0 0 0 14.667 4V0h-1.334v2.04A8.114 8.114 0 0 0 11.744.928a8.007 8.007 0 0 0-6.859-.3 7.944 7.944 0 0 0-2.542 1.714A7.969 7.969 0 0 0 0 8a7.969 7.969 0 0 0 2.344 5.657A7.969 7.969 0 0 0 8 16a7.98 7.98 0 0 0 6.706-3.636l-1.117-.729z"/>
        <path fill="#000" fill-opacity=".54" fill-rule="nonzero" d="M8 2.667V2a5.965 5.965 0 0 0-4.242 1.758A5.956 5.956 0 0 0 2 8c0 1.602.625 3.108 1.758 4.242A5.956 5.956 0 0 0 8 14a5.965 5.965 0 0 0 4.242-1.758A5.956 5.956 0 0 0 14 8h-.667A5.338 5.338 0 0 1 8 13.333 5.339 5.339 0 0 1 2.667 8 5.338 5.338 0 0 1 8 2.667z"/>
        <path d="M-2-2h20v20H-2z"/>
    </g>
</svg>
