<svg xmlns="http://www.w3.org/2000/svg" width="68" height="64" viewBox="0 0 68 64">
    <defs>
        <linearGradient id="a" x1="100%" x2="0%" y1="0%" y2="100%">
            <stop offset="0%" stop-color="#34495E"/>
            <stop offset="100%" stop-color="#2C3E50"/>
        </linearGradient>
    </defs>
    <g fill="url(#a)" fill-rule="nonzero" transform="translate(-542 -750)">
        <path d="M545.024 806H581c1.654 0 3-1.346 3-3v-38c0-.046-.02-.086-.026-.13a.853.853 0 0 0-.026-.124.976.976 0 0 0-.244-.454l-13.998-13.998a1.013 1.013 0 0 0-.454-.244.853.853 0 0 0-.124-.026c-.042-.004-.082-.024-.128-.024h-23.988a3.01 3.01 0 0 0-3.012 3v50c0 1.654 1.356 3 3.024 3zM570 753.414L580.586 764H571c-.55 0-1-.448-1-1v-9.586zM544 753c0-.552.454-1 1.012-1H568v11c0 1.654 1.346 3 3 3h11v37c0 .552-.45 1-1 1h-35.976a1.012 1.012 0 0 1-1.024-1v-50z"/>
        <path d="M551 774h24a1 1 0 0 0 0-2h-24a1 1 0 0 0 0 2zM551 782h24a1 1 0 0 0 0-2h-24a1 1 0 0 0 0 2zM551 766h10a1 1 0 0 0 0-2h-10a1 1 0 0 0 0 2zM551 790h24a1 1 0 0 0 0-2h-24a1 1 0 0 0 0 2zM551 798h24a1 1 0 0 0 0-2h-24a1 1 0 0 0 0 2z"/>
        <path d="M585 760h9v11c0 1.654 1.346 3 3 3h11v37c0 .552-.45 1-1 1h-35.976a1.012 1.012 0 0 1-1.024-1v-2a1 1 0 0 0-2 0v2c0 1.654 1.356 3 3.024 3H607c1.654 0 3-1.346 3-3v-38c0-.046-.02-.086-.026-.13a.853.853 0 0 0-.026-.124.976.976 0 0 0-.244-.454l-13.998-13.998a.983.983 0 0 0-.456-.244.823.823 0 0 0-.122-.024c-.042-.006-.082-.026-.128-.026h-10a1 1 0 0 0 0 2zm12 12c-.55 0-1-.448-1-1v-9.586L606.586 772H597z"/>
        <path d="M589 782h12a1 1 0 0 0 0-2h-12a1 1 0 0 0 0 2zM589 790h12a1 1 0 0 0 0-2h-12a1 1 0 0 0 0 2zM589 798h12a1 1 0 0 0 0-2h-12a1 1 0 0 0 0 2zM589 806h12a1 1 0 0 0 0-2h-12a1 1 0 0 0 0 2z"/>
    </g>
</svg>
