<svg xmlns="http://www.w3.org/2000/svg" width="54" height="64" viewBox="0 0 54 64">
    <defs>
        <linearGradient id="a" x1="100%" x2="0%" y1="0%" y2="100%">
            <stop offset="0%" stop-color="#34495E"/>
            <stop offset="100%" stop-color="#2C3E50"/>
        </linearGradient>
    </defs>
    <path fill="url(#a)" fill-rule="nonzero" d="M27 0C9.126 0 .584 10.094.228 10.524c-.146.18-.228.404-.228.638V31.27c0 17.008 15.652 27.106 22.38 30.658a1.001 1.001 0 0 0 .934-1.77C15.354 55.956 2 46.616 2 31.268V11.542c1.404-1.51 9.264-9.194 24-9.53V63a1 1 0 0 0 1.75.662C31.024 62.254 54 51.632 54 31V11a.999.999 0 0 0-.23-.638c-.296-.358-7.428-8.75-22.282-10.248-.55-.038-1.042.346-1.096.894a1 1 0 0 0 .894 1.096C43.86 3.372 50.692 9.994 52 11.384V31c0 17.904-18.726 27.898-24 30.358V1a1 1 0 0 0-1-1z"/>
</svg>
