<svg xmlns="http://www.w3.org/2000/svg" width="10" height="14" viewBox="0 0 10 14">
    <g fill="none" fill-rule="evenodd">
        <path fill="#000" fill-opacity=".38" fill-rule="nonzero" d="M7.733 6.769A3.658 3.658 0 0 0 9 4 3.672 3.672 0 0 0 5.333.333H1A.666.666 0 0 0 .333 1v12c0 .369.298.667.667.667h5A3.672 3.672 0 0 0 9.667 10c0-1.396-.784-2.61-1.934-3.231zM1.667 1.667h3.666A2.335 2.335 0 0 1 7.667 4a2.335 2.335 0 0 1-2.334 2.333H1.667V1.667zM6 12.333H1.667V7.667H6A2.335 2.335 0 0 1 8.333 10 2.335 2.335 0 0 1 6 12.333z"/>
        <path d="M-5-3h20v20H-5z"/>
    </g>
</svg>
