<svg xmlns="http://www.w3.org/2000/svg" width="16" height="16" viewBox="0 0 16 16">
    <g fill="none" fill-rule="evenodd">
        <path fill="#000" fill-opacity=".38" fill-rule="nonzero" d="M15.04 3.833L12.592.791a.33.33 0 0 0-.26-.125H3.666c-.1 0-.196.046-.26.125L.958 3.833a1.33 1.33 0 0 0-.294.834V7c0 .183.15.333.334.333h1V14c0 .735.598 1.333 1.333 1.333h9.333c.736 0 1.334-.598 1.334-1.333V7.333h1c.183 0 .333-.15.333-.333V4.667c0-.315-.11-.606-.294-.834h.001zm-11.213-2.5h8.348l1.608 2H2.217l1.61-2zM12.667 14H3.333V7.333h9.334V14zM2 6.667v-2h12v2H2z"/>
        <path fill="#000" fill-opacity=".38" fill-rule="nonzero" d="M6.333 10h3.334a1 1 0 0 0 0-2H6.333a1 1 0 0 0 0 2zm0-1.333h3.334c.183 0 .333.15.333.333 0 .183-.15.333-.333.333H6.333A.334.334 0 0 1 6 9c0-.183.15-.333.333-.333z"/>
        <path d="M-2-2h20v20H-2z"/>
    </g>
</svg>
