<svg xmlns="http://www.w3.org/2000/svg" width="16" height="12" viewBox="0 0 16 12">
    <g fill="none" fill-rule="evenodd">
        <path fill="#000" fill-opacity=".87" fill-rule="nonzero" d="M15.837 6.027L12.626.173A.334.334 0 0 0 12.334 0H3.667a.335.335 0 0 0-.292.173L.165 6.027C.06 6.216 0 6.435 0 6.666v4c0 .735.598 1.333 1.333 1.333h13.334c.735 0 1.333-.598 1.333-1.333v-4c0-.231-.06-.45-.165-.64h.002zm-1.169 4.639H1.335v-4h4.083a2.672 2.672 0 0 0 2.583 2c1.24 0 2.286-.852 2.584-2h4.083v4zm-4.333-5.333a.334.334 0 0 0-.334.333v.333c0 1.102-.898 2-2 2-1.102 0-2-.898-2-2v-.333a.334.334 0 0 0-.333-.333H1.305L3.866.666h8.273l2.56 4.667h-4.364z"/>
        <path d="M-2-4h20v20H-2z"/>
    </g>
</svg>
