<svg xmlns="http://www.w3.org/2000/svg" width="14" height="14" viewBox="0 0 14 14">
    <g fill="none" fill-rule="evenodd">
        <path fill="#000" fill-opacity=".38" fill-rule="nonzero" d="M12.897 4.508a6.355 6.355 0 0 0-1.372-2.033A6.387 6.387 0 0 0 6.999.599a6.375 6.375 0 0 0-4.525 1.876A6.387 6.387 0 0 0 .6 7a6.375 6.375 0 0 0 1.875 4.525A6.387 6.387 0 0 0 7 13.401a6.375 6.375 0 0 0 4.526-1.876A6.387 6.387 0 0 0 13.4 7c0-.863-.17-1.702-.503-2.492zM7 12.333A5.34 5.34 0 0 1 1.667 7 5.34 5.34 0 0 1 7 1.667 5.34 5.34 0 0 1 12.333 7 5.34 5.34 0 0 1 7 12.333z"/>
        <path fill="#000" fill-opacity=".38" fill-rule="nonzero" d="M7 2.2c-1.282 0-2.489.5-3.394 1.406A4.773 4.773 0 0 0 2.2 7c0 1.282.5 2.489 1.406 3.394A4.765 4.765 0 0 0 7 11.8c1.282 0 2.489-.5 3.394-1.406A4.765 4.765 0 0 0 11.8 7c0-1.282-.5-2.489-1.406-3.394A4.765 4.765 0 0 0 7 2.2zm0 9.067A4.27 4.27 0 0 1 2.733 7 4.271 4.271 0 0 1 7 2.733 4.27 4.27 0 0 1 11.267 7 4.271 4.271 0 0 1 7 11.267z"/>
        <path fill="#000" fill-opacity=".38" fill-rule="nonzero" d="M7.533 6.467A.533.533 0 0 0 7 5.933H5.933V7h.534v1.6h-.534v1.067h2.134V8.6h-.534V6.467zM6.467 4.333h1.066V5.4H6.467z"/>
        <path d="M-3-3h20v20H-3z"/>
    </g>
</svg>
