<svg xmlns="http://www.w3.org/2000/svg" width="14" height="10" viewBox="0 0 14 10">
    <g fill="none" fill-rule="evenodd">
        <path fill="#000" fill-opacity=".38" fill-rule="nonzero" d="M12.667 0H9.333C8.598 0 8 .598 8 1.333v3.334C8 5.402 8.598 6 9.333 6H12.6a3.34 3.34 0 0 1-3.267 2.667h-.666V10h.666a4.637 4.637 0 0 0 3.3-1.367A4.637 4.637 0 0 0 14 5.333v-4C14 .598 13.402 0 12.667 0zM9.333 1.333h3.334v3.334H9.333V1.333zM4.667 0H1.333C.598 0 0 .598 0 1.333v3.334C0 5.402.598 6 1.333 6H4.6a3.34 3.34 0 0 1-3.267 2.667H.667V10h.666a4.637 4.637 0 0 0 3.3-1.367A4.637 4.637 0 0 0 6 5.333v-4C6 .598 5.402 0 4.667 0zM1.333 1.333h3.334v3.334H1.333V1.333z"/>
        <path d="M-3-5h20v20H-3z"/>
    </g>
</svg>
