<svg xmlns="http://www.w3.org/2000/svg" width="14" height="8" viewBox="0 0 14 8">
    <g fill="none" fill-rule="evenodd">
        <path fill="#000" fill-opacity=".38" fill-rule="nonzero" d="M1 0C.633 0 .333.3.333.667c0 .366.3.666.667.666.367 0 .667-.3.667-.666C1.667.3 1.367 0 1 0zM1 3.333c-.367 0-.667.3-.667.667 0 .367.3.667.667.667.367 0 .667-.3.667-.667 0-.367-.3-.667-.667-.667zM1 6.667c-.367 0-.667.3-.667.666C.333 7.7.633 8 1 8c.367 0 .667-.3.667-.667 0-.366-.3-.666-.667-.666zM3 0h10.667v1.333H3zM3 3.333h10.667v1.334H3zM3 6.667h10.667V8H3z"/>
        <path d="M-3-6h20v20H-3z"/>
    </g>
</svg>
