<svg xmlns="http://www.w3.org/2000/svg" width="16" height="16" viewBox="0 0 16 16">
    <g fill="none" fill-rule="evenodd">
        <path fill="#34495E" fill-rule="nonzero" d="M8 9.6c2.647 0 4.8-2.153 4.8-4.8S10.647 0 8 0a4.805 4.805 0 0 0-4.8 4.8c0 2.647 2.153 4.8 4.8 4.8zm0-8c1.765 0 3.2 1.435 3.2 3.2C11.2 6.565 9.765 8 8 8a3.203 3.203 0 0 1-3.2-3.2c0-1.765 1.435-3.2 3.2-3.2zM14.167 12.055C13.062 10.94 11.045 10.4 8 10.4s-5.062.54-6.167 1.655C.8 13.095.8 14.362.8 15.2v.4c0 .22.18.4.4.4h13.6c.22 0 .4-.18.4-.4v-.4c0-.838 0-2.105-1.033-3.145zM2.4 15.2c0-.71 0-1.447.567-2.018.338-.34.858-.61 1.55-.804C5.403 12.128 6.576 12 8 12c1.425 0 2.598.127 3.482.378.693.195 1.213.464 1.55.804.568.57.568 1.308.568 2.018H2.4z"/>
        <path d="M-2-2h20v20H-2z"/>
    </g>
</svg>
