<svg xmlns="http://www.w3.org/2000/svg" width="16" height="16" viewBox="0 0 16 16">
    <g fill="none" fill-rule="evenodd">
        <path fill="#000" fill-opacity=".38" fill-rule="nonzero" d="M15.114.887A3.004 3.004 0 0 0 12.977 0c-.808 0-1.567.315-2.138.885L9.723 2.002H.333A.334.334 0 0 0 0 2.335V15.67c0 .183.15.333.333.333h13.334c.183 0 .333-.15.333-.333v-9.39l1.115-1.114a3.028 3.028 0 0 0 0-4.278h-.001zM5.249 8.39l2.363 2.363-3.308.946.946-3.308zm2.848 1.907L5.705 7.904l5.53-5.53 2.389 2.39-5.527 5.531v.001zm5.236 5.04H.666V2.668h8.39L4.194 7.53a.672.672 0 0 0-.169.288l-1.333 4.666a.665.665 0 0 0 .822.825l4.667-1.333a.672.672 0 0 0 .287-.169l4.863-4.863v8.39zm.839-11.115l-.075.075-2.392-2.392.075-.075a1.682 1.682 0 0 1 1.196-.496c.452 0 .875.176 1.196.496.658.661.658 1.732 0 2.392z"/>
        <path d="M-2-2h20v20H-2z"/>
    </g>
</svg>
