<svg xmlns="http://www.w3.org/2000/svg" width="12" height="16" viewBox="0 0 12 16">
    <g fill="none" fill-rule="evenodd">
        <path fill="#000" fill-opacity=".38" fill-rule="nonzero" d="M12 7.667c0-.134-.006-.265-.019-.396-.096-1.923-.574-3.582-1.4-4.826C9.521.845 7.935 0 6 0 4.065 0 2.48.845 1.419 2.445.489 3.845 0 5.764 0 8c0 1.848.119 3.95 1.002 5.513a4.533 4.533 0 0 0 1.89 1.835c.847.438 1.864.65 3.107.65 1.244 0 2.261-.212 3.108-.65a4.541 4.541 0 0 0 1.89-1.835c.883-1.563 1.002-3.665 1.002-5.513 0-.112-.002-.222-.004-.333H12zM2.53 3.183c.814-1.227 1.98-1.85 3.47-1.85.923 0 1.723.24 2.39.713A5.95 5.95 0 0 0 7.666 2c-1.042 0-2.538.192-3.744 1.11C2.647 4.08 2 5.614 2 7.668c0 1.654 1.346 3 3 3s3-1.346 3-3v-.334h-.667v.334A2.335 2.335 0 0 1 5 10a2.335 2.335 0 0 1-2.333-2.333c0-4.35 3.133-5 5-5 .554 0 1.108.094 1.631.272.058.08.117.158.173.244.158.238.3.494.427.771a4.303 4.303 0 0 0-2.231-.62 4.338 4.338 0 0 0-4.334 4.333c0 .918.748 1.666 1.667 1.666s1.667-.748 1.667-1.666a1 1 0 0 1 2 0A3.672 3.672 0 0 1 5 11.333 3.671 3.671 0 0 1 1.335 7.78c.03-1.875.442-3.46 1.194-4.596zm7.305 9.675C9.137 14.091 7.92 14.666 6 14.666s-3.14-.575-3.835-1.808c-.028-.048-.052-.096-.078-.144.79.404 1.669.619 2.58.619v-.667a4.99 4.99 0 0 1-2.969-.975 9.557 9.557 0 0 1-.28-1.587 4.331 4.331 0 0 0 7.915-2.437C9.333 6.748 8.585 6 7.667 6 6.748 6 6 6.748 6 7.667a1 1 0 0 1-2 0A3.672 3.672 0 0 1 7.667 4a3.65 3.65 0 0 1 2.656 1.142c.227.848.344 1.81.344 2.858 0 1.675-.098 3.563-.832 4.858z"/>
        <path fill="#000" fill-opacity=".38" fill-rule="nonzero" d="M4.667 7.667V8h.666v-.333a2.335 2.335 0 0 1 2.334-2.334H8v-.666h-.333c-1.654 0-3 1.346-3 3zM8.667 4.667v.666c.314 0 .637.258.887.708C9.841 6.56 10 7.256 10 8c0 2.569-1.46 5.334-4.667 5.334v.666c1.669 0 3.065-.666 4.036-1.927a6.13 6.13 0 0 0 .979-1.923 7.248 7.248 0 0 0 .319-2.148c0-1.87-.88-3.335-2-3.335z"/>
        <path d="M-4-2h20v20H-4z"/>
    </g>
</svg>
