<svg xmlns="http://www.w3.org/2000/svg" width="16" height="16" viewBox="0 0 16 16">
    <g fill="none" fill-rule="evenodd">
        <path fill="#000" fill-opacity=".38" fill-rule="nonzero" d="M14 .667H2C1.265.667.667 1.265.667 2v10.39c0 .355.139.689.392.941l1.61 1.611c.252.252.588.392.942.392h10.39c.735 0 1.333-.598 1.333-1.333V2c0-.736-.598-1.334-1.333-1.334H14zM4 1.333h8v5.334c0 .366-.3.666-.667.666H4.667A.669.669 0 0 1 4 6.667V1.333zm7.333 13.334h-6v-4h6v4zM14 14h-2v-3.667a.334.334 0 0 0-.333-.333H5a.334.334 0 0 0-.333.333V14H3.61L2 12.39V2h1.333v4.667C3.333 7.402 3.931 8 4.667 8h6.666c.736 0 1.334-.598 1.334-1.333V2H14v12z"/>
        <path fill="#000" fill-opacity=".38" fill-rule="nonzero" d="M6.333 14h1.334c.183 0 .333-.15.333-.333v-2a.334.334 0 0 0-.333-.334H6.333a.334.334 0 0 0-.333.334v2c0 .183.15.333.333.333zm.334-2h.666v1.333h-.666V12z"/>
        <path d="M-2-2h20v20H-2z"/>
    </g>
</svg>
