<svg xmlns="http://www.w3.org/2000/svg" width="18" height="20" viewBox="0 0 18 20">
    <g fill="#000" fill-opacity=".38" fill-rule="evenodd">
        <path d="M17.992 3.35c.12 5.027-1.064 9.143-3.571 12.338-1.361 1.735-3.066 3.138-5.112 4.234-.186.1-.436.108-.596 0-2.061-1.078-3.769-2.492-5.133-4.234C1.076 12.491-.118 8.378.01 3.35a.601.601 0 0 1 .52-.53 20.48 20.48 0 0 0 3.943-.901C5.77 1.482 7.187.876 8.713.076a.577.577 0 0 1 .574 0c1.538.8 2.963 1.408 4.251 1.843 1.295.437 2.615.732 3.954.902a.556.556 0 0 1 .5.529zm-1.2.73a.48.48 0 0 0-.432-.454c-1.16-.146-2.305-.4-3.427-.776A26.363 26.363 0 0 1 9.25 1.266a.503.503 0 0 0-.497 0A25.607 25.607 0 0 1 5.076 2.85c-1.122.375-2.266.63-3.417.776a.52.52 0 0 0-.451.455c-.11 4.323.925 7.861 3.095 10.611 1.182 1.498 2.662 2.714 4.449 3.641.138.093.354.086.515 0 1.774-.943 3.251-2.15 4.43-3.64 2.174-2.75 3.2-6.288 3.096-10.612z"/>
        <g fill-rule="nonzero">
            <path d="M10.11 8.125h.749v.026c.445.017.802.4.802.867v2.993c0 .478-.374.868-.833.868H6.932c-.46 0-.833-.39-.833-.868V9.018c0-.468.357-.85.802-.867V6.868c0-1.137.888-2.063 1.979-2.063 1.091 0 1.979.926 1.979 2.063V7h-.749v-.131c0-.707-.552-1.282-1.23-1.282-.679 0-1.23.575-1.23 1.282V8.15h2.46v-.025zm.803 3.886V9.018a.087.087 0 0 0-.085-.088H6.932a.087.087 0 0 0-.085.088v2.993c0 .048.039.088.085.088h3.896c.046 0 .085-.04.085-.088z"/>
            <path d="M8.88 9.733a.535.535 0 0 0-.523.545c0 .147.057.281.149.38v.381c0 .215.167.39.374.39a.382.382 0 0 0 .374-.39v-.381a.555.555 0 0 0 .149-.38c0-.3-.235-.545-.523-.545z"/>
        </g>
    </g>
</svg>
