<svg xmlns="http://www.w3.org/2000/svg" width="16" height="16" viewBox="0 0 16 16">
    <g fill="none" fill-rule="evenodd">
        <path fill="#000" fill-opacity=".38" fill-rule="nonzero" d="M14.667 7.333H1.333C.598 7.333 0 7.931 0 8.667v6C0 15.402.598 16 1.333 16h13.334c.735 0 1.333-.598 1.333-1.333v-6c0-.736-.598-1.334-1.333-1.334zm0 7.334H1.333v-6h13.334v6c.002 0 0 0 0 0z"/>
        <path fill="#000" fill-opacity=".38" fill-rule="nonzero" d="M2 13.333h1.333V14H2v-.667zM4 14h4v-.667H4V14zm4.667 0h.666v-.667h-.666V14zM10 14h.667v-.667H10V14zm-6-2H2v.667h2V12zm-.667-1.333H2v.666h1.333v-.666zm-.666-1.334H2V10h.667v-.667zm1.333 0h-.667V10H4v-.667zm1.333 0h-.666V10h.666v-.667zm1.334 0H6V10h.667v-.667zm1.333 0h-.667V10H8v-.667zm1.333 0h-.666V10h.666v-.667zM10 10h.667v-.667H10V10zm-6 1.333h.667v-.666H4v.666zm1.333 0H6v-.666h-.667v.666zm1.334 0h.666v-.666h-.666v.666zm2-.666H8v.666h.667v-.666zm.666.666h1.334v-.666H9.333v.666zm-.666 1.334h2V12h-2v.667zm-1.334 0H8V12h-.667v.667zm-1.333 0h.667V12H6v.667zm-1.333 0h.666V12h-.666v.667zM13.333 14H14v-.667h-.667V14zm0-1.333H14V12h-.667v.667zm0-1.334H14v-.666h-.667v.666zm0-1.333H14v-.667h-.667V10zM12 14h.667v-.667H12V14zm0-1.333h.667V12H12v.667zm0-1.334h.667v-.666H12v.666zM12 10h.667v-.667H12V10zM7.333 2.277V6h1.334V2.277l1.029 1.03.944-.944L8.473.196a.668.668 0 0 0-.944 0L5.363 2.363l.944.944 1.027-1.03z"/>
        <path d="M-2-2h20v20H-2z"/>
    </g>
</svg>
