<svg xmlns="http://www.w3.org/2000/svg" width="16" height="12" viewBox="0 0 16 12">
    <g fill="none" fill-rule="evenodd">
        <path fill="#000" fill-opacity=".38" fill-rule="nonzero" d="M15.577 5.027L11.323 1.03a1.325 1.325 0 0 0-.912-.362H1.333C.598.667 0 1.265 0 2v8c0 .735.598 1.333 1.333 1.333h9.08c.342 0 .666-.129.914-.362l4.254-4c.269-.252.421-.606.421-.973a1.338 1.338 0 0 0-.425-.97zM10.413 10h-9.08V2h9.078l4.254 4-4.252 4z"/>
        <path fill="#000" fill-opacity=".38" fill-rule="nonzero" d="M13.227 5.756l-3.192-3a.336.336 0 0 0-.229-.09H2.333A.334.334 0 0 0 2 3v6c0 .183.15.333.333.333h7.473a.346.346 0 0 0 .23-.089l3.191-3a.339.339 0 0 0 0-.488zm-3.552 2.91H2.667V3.334h7.008L12.513 6 9.675 8.667z"/>
        <path d="M-2-4h20v20H-2z"/>
    </g>
</svg>
