<svg xmlns="http://www.w3.org/2000/svg" width="16" height="13" viewBox="0 0 16 13">
    <g fill="none" fill-rule="evenodd">
        <path fill="#000" fill-opacity=".38" fill-rule="nonzero" d="M4 1.667h11.333V3H4zM4 6.333h11.333v1.334H4zM4 11h11.333v1.333H4zM1.333 1.47v2.197H2v-3A.333.333 0 0 0 1.431.43l-.902.902.471.471.333-.333zM2.667 6c0-.3-.115-.567-.321-.75a1.02 1.02 0 0 0-.68-.25c-.256 0-.497.09-.679.252a.986.986 0 0 0-.32.75v.333h.666v-.333c0-.319.278-.333.334-.333.092 0 .177.029.237.083.065.056.096.142.096.252 0 .408-.227.6-.598.88C1.075 7.124.667 7.428.667 8c0 .183.15.333.333.333h1.667v-.666H1.489c.078-.078.182-.156.311-.254.367-.276.867-.65.867-1.413zM1.967 11.046L2.6 10.2a.333.333 0 1 0-.267-.533H.667v.666h1l-.6.8a.333.333 0 1 0 .267.533h.333a.334.334 0 0 1 0 .667h-1V13h1a1 1 0 0 0 .3-1.954z"/>
        <path d="M-2-3h20v20H-2z"/>
    </g>
</svg>
