<svg xmlns="http://www.w3.org/2000/svg" width="8" height="16" viewBox="0 0 8 16">
    <g fill="none" fill-rule="evenodd">
        <path fill="#000" fill-opacity=".38" fill-rule="nonzero" d="M6.667 4.667V12A2.67 2.67 0 0 1 4 14.667 2.67 2.67 0 0 1 1.333 12V3c0-.919.748-1.667 1.667-1.667S4.667 2.081 4.667 3v9c0 .367-.3.667-.667.667A.669.669 0 0 1 3.333 12V4.667H2V12c0 1.102.898 2 2 2 1.102 0 2-.898 2-2V3c0-1.654-1.346-3-3-3S0 1.346 0 3v9c0 2.206 1.794 4 4 4s4-1.794 4-4V4.667H6.667z"/>
        <path d="M-6-2h20v20H-6z"/>
    </g>
</svg>
