<svg xmlns="http://www.w3.org/2000/svg" width="16" height="16" viewBox="0 0 16 16">
    <g fill="none" fill-rule="evenodd">
        <path fill="#FFF" fill-rule="nonzero" d="M1.465 1.465A4.968 4.968 0 0 1 5 0c1.335 0 2.592.52 3.535 1.465A4.968 4.968 0 0 1 10 5a4.96 4.96 0 0 1-1.025 3.033l.75.75a1.67 1.67 0 0 1 1.787.371l4.002 4c.648.65.648 1.708-.002 2.358a1.67 1.67 0 0 1-2.357-.002l-4.002-4.002a1.669 1.669 0 0 1-.37-1.783l-.75-.75a4.96 4.96 0 0 1-3.034 1.024 4.967 4.967 0 0 1-3.535-1.464A4.971 4.971 0 0 1-.001 4.999C0 3.664.52 2.407 1.464 1.464zM5 8.667A3.672 3.672 0 0 0 8.667 5 3.672 3.672 0 0 0 5 1.333 3.672 3.672 0 0 0 1.333 5 3.672 3.672 0 0 0 5 8.667z"/>
        <path d="M18-2H-2v20h20z"/>
    </g>
</svg>
